<?xml version="1.0"?>
<svg xmlns:rdf="http://www.w3.org/1999/02/22-rdf-syntax-ns#" xmlns="http://www.w3.org/2000/svg" xmlns:cc="http://creativecommons.org/ns#" xmlns:xlink="http://www.w3.org/1999/xlink" xmlns:dc="http://purl.org/dc/elements/1.1/" id="svg2997" viewBox="0 0 207.04 161.49" version="1.1">
  <title id="title3045">Coffee Pot</title>
  <defs id="defs3005">
    <linearGradient id="linearGradient4323" y2="59.811" gradientUnits="userSpaceOnUse" x2="188.56" gradientTransform="translate(.23159)" y1="4.0247" x1=".32624">
      <stop id="stop4075" stop-color="#515151" offset="0"/>
      <stop id="stop4077" stop-color="#202020" offset="1"/>
    </linearGradient>
    <linearGradient id="linearGradient4325" y2="96.349" gradientUnits="userSpaceOnUse" x2="173.56" y1="97.654" x1="3.5886">
      <stop id="stop3056" stop-color="#712020" offset="0"/>
      <stop id="stop3058" stop-color="#411000" offset="1"/>
    </linearGradient>
    <linearGradient id="linearGradient4327" y2="276.11" gradientUnits="userSpaceOnUse" x2="85.147" gradientTransform="matrix(.79858 0 0 .54476 20.948 -35.203)" y1="186.39" x1="84.169">
      <stop id="stop3112" stop-color="#515151" offset="0"/>
      <stop id="stop3114" stop-color="#e3e3e3" offset="1"/>
    </linearGradient>
    <linearGradient id="linearGradient4329" y2="240.87" gradientUnits="userSpaceOnUse" x2="102.44" gradientTransform="matrix(.98787 0 0 .99653 -17.525 -203.74)" y1="262.79" x1="102.44">
      <stop id="stop4299" stop-opacity="0" offset="0"/>
      <stop id="stop4301" stop-color="#929292" offset="1"/>
    </linearGradient>
    <linearGradient id="linearGradient4331" y2="239.91" gradientUnits="userSpaceOnUse" x2="105.05" gradientTransform="matrix(.98611 0 0 .99653 -17.207 -198.48)" y1="226.76" x1="105.05">
      <stop id="stop4305" stop-opacity="0" offset="0"/>
      <stop id="stop4307" stop-color="#c3c3c3" offset="1"/>
    </linearGradient>
  </defs>
  <g id="g4313" transform="translate(-.23159 3.0054e-8)">
    <path id="path3001" d="m154.27 23.721c27.453 5.6815 27.409 28.762 34.341 51 2.797 8.9712 7.458 25.117 18.659 26-0.994-8.9809-9.411-14.58-12.251-23-4.655-13.801-4.56-31.912-13.129-44-8.411-11.866-18.313-11.568-30.62-16.613l-23-9.2384c-19.46-7.8188-44.673-0.352-64.996 2.5514-20.385 2.9126-33.668-1.705-52-9.3364-3.5088-1.4607-9.5669-2.1792-10.639 2.7454-3.7206 17.092 19.416 17.121 23.761 26.896 3.8191 8.5908-1.0803 12.754-7.0139 18.571-2.5656 2.5152-5.4957 6.565-1.787 9.5664 5.5996 4.5317 20.643 2.3442 27.678 3.0278 29.048 2.8222 58.956 4.9456 88 0.4205 7.241-1.1281 26.505 1.6633 31.396-4.0239 5.936-6.9025-9.616-12.92-11.755-18.566-1.947-5.1412 2.466-10.978 3.359-16z" fill="url(#linearGradient4323)"/>
    <path id="path4338" d="m81.47 161.16c-18.796-1.37-35.944-7.64-50.353-18.41-3.908-2.92-11.49-10.4-14.238-14.05-10.384-13.78-15.046-29.572-13.347-45.2 0.44604-4.1039 1.7503-9.9936 3.0217-13.645 1.1521-3.3086 4.0553-9.5091 5.7874-12.361l1.2035-1.9812 1.2866 1.339c0.96411 1.0033 1.8455 1.5116 3.5162 2.0276 3.5259 1.089 6.0168 1.3152 14.561 1.3223 6.0454 0.005 10.783 0.24733 19.406 0.99268 14.986 1.2953 19.188 1.5737 30.483 2.0189 14.537 0.57308 31.192-0.10028 42.793-1.7302 3.5447-0.498 7.8208-0.7497 16.255-0.95679 14.772-0.36271 17.933-0.93546 20.593-3.7309l1.1116-1.1682 1.1202 1.8596c4.2908 7.123 7.3742 15.718 8.5329 23.786 0.61274 4.2666 0.61074 12.656-0.004 16.98-1.9778 13.912-8.6014 26.735-19.378 37.515-14.316 14.321-34.764 23.4-56.924 25.274-3.6816 0.31138-11.917 0.37472-15.425 0.11865h0.000013z" stroke="#511010" stroke-width=".33173" fill="url(#linearGradient4325)"/>
    <path id="path4338-9" opacity=".13" d="m25.24 66.333c-0.88594 1.1577-1.7274 2.3452-2.1961 3.1715-1.0153 1.7901-2.0645 4.6833-2.4207 6.6954-1.3564 7.662 2.3636 15.396 10.656 22.155 2.1945 1.7886 8.2591 5.4627 11.38 6.8946 11.506 5.2795 25.194 8.3516 40.204 9.0242 2.8016 0.12555 9.3881 0.0914 12.328-0.0613 17.697-0.91888 34.012-5.3736 45.444-12.395 8.6064-5.2855 13.918-11.565 15.498-18.386 0.49092-2.1201 0.48932-6.2429 0-8.3348-0.68188-2.915-2.2202-5.9603-4.3423-8.7638h-56.649c-1.5092 0.01084-3.0158 0.007-4.517 0h-65.384z" fill="url(#linearGradient4327)"/>
    <path id="path4338-94" opacity=".3" d="m8.2051 95.28c3.7512 11.409 7.9218 22.668 16.543 32.813 1.418 1.6685 3.8728 5.3581 6.6397 6.625 1.3567 0.62121 2.0951-2.1407 0.58994-4.1971-1.1045-1.509-2.8752-3.7468-3.454-4.4279-8.1219-9.5571-12.486-21.604-16.1-30.813-0.52924-1.3484-4.6691-1.3698-4.2188 0z" fill="#823030"/>
    <path id="path4338-94-5" opacity=".3" d="m17.19 97.322c5.0364 11.409 10.475 22.668 20.239 32.813 1.6059 1.6685 4.4763 5.3581 7.3859 6.625 1.4267 0.62121 1.854-2.1407 0.11716-4.1971-1.2744-1.509-3.2972-3.7468-3.9527-4.4279-9.1985-9.5571-14.919-21.604-19.571-30.813-0.68114-1.3484-4.8234-1.3698-4.2188 0z" fill="#823030"/>
    <g id="g4309">
      <path id="path3001-2" opacity=".17" d="m26.713 37.907c-0.27025 3.363-2.2407 6.022-4.8776 8.782 0.30628 0.11041 0.64306 0.15571 0.98787 0.15571h128.27c1.3344 0 2.4374-0.88418 2.7784-2.1176-1.6154-1.4401-2.9365-2.8479-3.4576-4.2353-0.31797-0.84696-0.44588-1.7073-0.46307-2.5848h-123.24z" fill="url(#linearGradient4329)"/>
      <path id="path3001-2-9" opacity=".17" d="m25.201 30.921c0.10582 0.19608 0.18744 0.3873 0.27734 0.59169 1.0721 2.4371 1.4439 4.5185 1.2943 6.384h123.02c-0.0442-2.2608 0.74286-4.6063 1.6332-6.9135-0.16108-0.0279-0.32387-0.06228-0.49305-0.06228h-125.73z" fill="url(#linearGradient4331)"/>
    </g>
  </g>
  <metadata>
    <rdf:RDF>
      <cc:Work>
        <dc:format>image/svg+xml</dc:format>
        <dc:type rdf:resource="http://purl.org/dc/dcmitype/StillImage"/>
        <cc:license rdf:resource="http://creativecommons.org/licenses/publicdomain/"/>
        <dc:publisher>
          <cc:Agent rdf:about="http://openclipart.org/">
            <dc:title>Openclipart</dc:title>
          </cc:Agent>
        </dc:publisher>
      </cc:Work>
      <cc:License rdf:about="http://creativecommons.org/licenses/publicdomain/">
        <cc:permits rdf:resource="http://creativecommons.org/ns#Reproduction"/>
        <cc:permits rdf:resource="http://creativecommons.org/ns#Distribution"/>
        <cc:permits rdf:resource="http://creativecommons.org/ns#DerivativeWorks"/>
      </cc:License>
    </rdf:RDF>
  </metadata>
</svg>
