<?xml version="1.0" encoding="utf-8"?>
<!-- Generator: Adobe Illustrator 16.0.0, SVG Export Plug-In . SVG Version: 6.00 Build 0)  -->
<!DOCTYPE svg PUBLIC "-//W3C//DTD SVG 1.1//EN" "http://www.w3.org/Graphics/SVG/1.1/DTD/svg11.dtd">
<svg version="1.1" id="milk" xmlns="http://www.w3.org/2000/svg" xmlns:xlink="http://www.w3.org/1999/xlink" x="0px" y="0px"
	 width="209px" height="228px" viewBox="0 0 209 228" enable-background="new 0 0 209 228" xml:space="preserve">
<g id="milk_parts">
	<rect x="16" y="85" fill="#ECEFF9" width="80" height="130"/>
	<rect x="106" y="85" fill="#D5E3EF" width="50" height="130"/>
	<polygon fill="#FFFFFF" points="98.5,75 121,45 43.5,45 21,75 	"/>
	<polygon fill="#E2E7F0" points="116,45 93.5,75 98.5,75 121,45 	"/>
	<path fill="#ECEFF9" d="M126,20c0-3-2.002-5-5-5H51c-3,0-5,2-5,5v15h80V20z"/>
	<polygon fill="#B0C4D8" points="111,75 151,75 131,48.501 	"/>
	<path fill="#014463" d="M81,135H31c-3,0-5-2.002-5-5s2-5,5-5h50c3,0,5,2.002,5,5S84,135,81,135"/>
	<path fill="#014463" d="M71,155H41c-3,0-5-2.002-5-5s2-5,5-5h30c3,0,5,2.002,5,5S74,155,71,155"/>
	<polygon fill="#99B5CD" points="131,48.501 111,75 123.998,75 	"/>
	<rect x="16" y="85" fill="#FFFFFF" width="5" height="130"/>
	<path fill="#D5E3EF" d="M91,97.002V205c0,2.998-2,5-5,5H38c-4.5,0-8.999,2.002-12,5h65h5v-5V85.002C93,87.998,91,92.502,91,97.002"
		/>
	<path fill="#B0C4D9" d="M151,97.002V205c0,2.998-2.002,5-5,5h-27.998c-4.502,0-9.004,2.002-12.002,5h45h5v-5V85.002
		C153.002,87.998,151,92.502,151,97.002"/>
	<path fill="#D5E3EF" d="M121,15v20h5V20C126,17,123.998,15,121,15"/>
	<path fill="#014463" d="M164.999,77L136,38.501V20c0-8.501-6.499-15-15-15H51c-8.501,0-15,6.499-15,15v18.501L7.001,77
		C6.5,78,6,78.999,6,80v140c0,2.998,2,5,5,5h90h60c2.998,0,5-2.002,5-5V80C166,78.999,165.502,78,164.999,77 M151,75h-40l20-26.499
		L151,75z M46,20c0-3,2-5,5-5h70c2.998,0,5,2,5,5v15H46V20z M96,215H16V85h80V215z M98.5,75H21l22.5-30H121L98.5,75z M156,215h-50
		V85h50V215z"/>
	<path fill="#C9D5E3" d="M196,157.002V125h-60v37.002c7.998,3.999,20,3.496,27.002-1.504
		C172.001,154.502,185.502,153.501,196,157.002"/>
	<path fill="#FFFFFF" d="M169.003,168.999c-9.004,6.001-22.002,7.5-33.003,3.999V205c0,5.498,4.502,10,10,10h40
		c5.503,0,10-4.502,10-10v-37.002C188.002,163.501,176,163.999,169.003,168.999"/>
	<path fill="#DDE1E3" d="M186,165v40c0,2.998-2.002,5-5,5h-43.501c1.499,2.998,5,5,8.501,5h40c5.498,0,10-4.502,10-10v-37.002
		C193.002,166.499,189.501,165.498,186,165"/>
	<path fill="#A7B0C4" d="M162.997,161.001c1.001-0.503,2.002-1.001,3.003-1.499V125h-10v38.999
		C158.5,163.501,161,162.5,162.997,161.001"/>
	<path fill="#E2E7F0" d="M166,158.999c8.999-4.497,20.498-5.498,30-1.997V125h-30V158.999z"/>
	<path fill="#C9D5E3" d="M186,125v30c3.501,0,7.002,1.001,10,2.002V125H186z"/>
	<path fill="#ECF0F9" d="M146,155L146,155c-2.998,0-5-2.002-5-5v-25h10v25C151,152.998,148.998,155,146,155"/>
	<path fill="#014463" d="M201,115h-70c-2.998,0-5,2.002-5,5v45v40c0,11.001,8.999,20,20,20h40c11.001,0,20-8.999,20-20v-40v-45
		C206,117.002,203.998,115,201,115 M136,125h60v32.002c-10.498-3.501-23.999-2.5-32.998,3.999c-7.5,5-19.004,5.498-27.002,1.499V125
		z M196,205c0,5.498-4.502,10-10,10h-40c-5.498,0-10-4.502-10-10v-25v-7.002c3.999,1.504,7.998,2.002,12.5,2.002
		c7.5,0,14.502-2.002,20.498-6.001c7.5-5,19.004-5.498,27.002-1.001V180V205z"/>
</g>
</svg>
