<?xml version="1.0" encoding="UTF-8" standalone="no"?>
<!-- Created with Inkscape (http://www.inkscape.org/) -->

<svg
   xmlns:dc="http://purl.org/dc/elements/1.1/"
   xmlns:cc="http://creativecommons.org/ns#"
   xmlns:rdf="http://www.w3.org/1999/02/22-rdf-syntax-ns#"
   xmlns:svg="http://www.w3.org/2000/svg"
   xmlns="http://www.w3.org/2000/svg"
   xmlns:sodipodi="http://sodipodi.sourceforge.net/DTD/sodipodi-0.dtd"
   xmlns:inkscape="http://www.inkscape.org/namespaces/inkscape"
   id="svg2"
   xml:space="preserve"
   viewBox="0 0 22944.956 13727.996"
   version="1.1"
   inkscape:version="0.91 r13725"
   sodipodi:docname="food-proper-rice.svg"
   width="22944.955"
   height="13727.996"><sodipodi:namedview
     pagecolor="#ffffff"
     bordercolor="#666666"
     borderopacity="1"
     objecttolerance="10"
     gridtolerance="10"
     guidetolerance="10"
     inkscape:pageopacity="0"
     inkscape:pageshadow="2"
     inkscape:window-width="1916"
     inkscape:window-height="1035"
     id="namedview229"
     showgrid="false"
     fit-margin-top="0"
     fit-margin-left="0"
     fit-margin-right="0"
     fit-margin-bottom="0"
     inkscape:zoom="0.01"
     inkscape:cx="22893.792"
     inkscape:cy="19.567448"
     inkscape:window-x="4"
     inkscape:window-y="1"
     inkscape:window-maximized="1"
     inkscape:current-layer="g474" /><defs
     id="defs6"><linearGradient
       id="linearGradient24"
       y2="17.575001"
       gradientUnits="userSpaceOnUse"
       x2="38.299999"
       gradientTransform="matrix(0.68,0,0,-0.68,0.0056801,22.391)"
       y1="17.575001"
       x1="-0.0082999999"><stop
         id="stop26"
         style="stop-color:#d1ab89"
         offset="0" /><stop
         id="stop28"
         style="stop-color:#b07f5a"
         offset="1" /></linearGradient><clipPath
       id="clipPath42"><path
         id="path44"
         d="m 0,3.3063 18,0 0,13 -18,0 0,-13 z"
         inkscape:connector-curvature="0" /></clipPath><mask
       id="mask46"><g
         id="g48"><g
           id="g50"
           clip-path="url(#clipPath42)"><path
             id="path52"
             style="fill:#000000;fill-opacity:0.44140003"
             d="m 0,3.3063 18,0 0,13 -18,0 0,-13 z"
             inkscape:connector-curvature="0" /></g></g></mask><clipPath
       id="clipPath58"><path
         id="path60"
         d="m 0,3.3063 18,0 0,13 -18,0 0,-13 z"
         inkscape:connector-curvature="0" /></clipPath><clipPath
       id="clipPath62"><path
         id="path64"
         d="M 0,4 18,4 18,17 0,17 0,4 Z"
         inkscape:connector-curvature="0" /></clipPath><clipPath
       id="clipPath88"><path
         id="path90"
         d="m 15,3.3063 12,0 0,14 -12,0 0,-14 z"
         inkscape:connector-curvature="0" /></clipPath><mask
       id="mask92"><g
         id="g94"><g
           id="g96"
           clip-path="url(#clipPath88)"><path
             id="path98"
             style="fill:#000000;fill-opacity:0.14059999"
             d="m 15,3.3063 12,0 0,14 -12,0 0,-14 z"
             inkscape:connector-curvature="0" /></g></g></mask><clipPath
       id="clipPath104"><path
         id="path106"
         d="m 15,3.3063 12,0 0,14 -12,0 0,-14 z"
         inkscape:connector-curvature="0" /></clipPath><clipPath
       id="clipPath108"><path
         id="path110"
         d="M 15,4 27,4 27,18 15,18 15,4 Z"
         inkscape:connector-curvature="0" /></clipPath><clipPath
       id="clipPath132"><path
         id="path134"
         d="m 1,4.3063 8,0 0,11 -8,0 0,-11 z"
         inkscape:connector-curvature="0" /></clipPath><mask
       id="mask136"><g
         id="g138"><g
           id="g140"
           clip-path="url(#clipPath132)"><path
             id="path142"
             style="fill:#000000;fill-opacity:0.25"
             d="m 1,4.3063 8,0 0,11 -8,0 0,-11 z"
             inkscape:connector-curvature="0" /></g></g></mask><clipPath
       id="clipPath148"><path
         id="path150"
         d="m 1,4.3063 8,0 0,11 -8,0 0,-11 z"
         inkscape:connector-curvature="0" /></clipPath><clipPath
       id="clipPath152"><path
         id="path154"
         d="M 1,5 9,5 9,16 1,16 1,5 Z"
         inkscape:connector-curvature="0" /></clipPath><linearGradient
       id="linearGradient182"
       y2="-9.0352001"
       gradientUnits="userSpaceOnUse"
       x2="9.1058998"
       gradientTransform="matrix(-0.67936,-0.02808,-0.02808,0.67936,0.0050401,22.391)"
       y1="-9.0352001"
       x1="-41.688"><stop
         id="stop184"
         style="stop-color:#ffe5c8"
         offset="0" /><stop
         id="stop186"
         style="stop-color:#edcfaf"
         offset="1" /></linearGradient><linearGradient
       id="linearGradient200"
       y2="-7.7997999"
       gradientUnits="userSpaceOnUse"
       x2="-3.3002"
       gradientTransform="matrix(-0.68,0,0,0.68,0.0053601,22.391)"
       y1="-7.7997999"
       x1="-36.700001"><stop
         id="stop202"
         style="stop-color:#c29874"
         offset="0" /><stop
         id="stop204"
         style="stop-color:#bb8e6a"
         offset=".17650" /><stop
         id="stop206"
         style="stop-color:#b68762"
         offset="1" /></linearGradient><clipPath
       id="clipPath282"><path
         id="path284"
         d="m 8,2.3063 23,0 0,8 -23,0 0,-8 z"
         inkscape:connector-curvature="0" /></clipPath><mask
       id="mask286"><g
         id="g288"><g
           id="g290"
           clip-path="url(#clipPath282)"><path
             id="path292"
             style="fill:#000000;fill-opacity:0.53130002"
             d="m 8,2.3063 23,0 0,8 -23,0 0,-8 z"
             inkscape:connector-curvature="0" /></g></g></mask><clipPath
       id="clipPath298"><path
         id="path300"
         d="m 8,2.3063 23,0 0,8 -23,0 0,-8 z"
         inkscape:connector-curvature="0" /></clipPath><clipPath
       id="clipPath302"><path
         id="path304"
         d="M 8,3 31,3 31,11 8,11 8,3 Z"
         inkscape:connector-curvature="0" /></clipPath><clipPath
       id="clipPath344"><path
         id="path346"
         d="m 8,1.3063 27,0 0,6 -27,0 0,-6 z"
         inkscape:connector-curvature="0" /></clipPath><mask
       id="mask348"><g
         id="g350"><g
           id="g352"
           clip-path="url(#clipPath344)"><path
             id="path354"
             style="fill:#000000;fill-opacity:0.53130002"
             d="m 8,1.3063 27,0 0,6 -27,0 0,-6 z"
             inkscape:connector-curvature="0" /></g></g></mask><clipPath
       id="clipPath360"><path
         id="path362"
         d="m 8,1.3063 27,0 0,6 -27,0 0,-6 z"
         inkscape:connector-curvature="0" /></clipPath><clipPath
       id="clipPath364"><path
         id="path366"
         d="M 8,2 35,2 35,8 8,8 8,2 Z"
         inkscape:connector-curvature="0" /></clipPath><clipPath
       id="clipPath388"><path
         id="path390"
         d="m 1,30.306 27,0 0,-16 -27,0 0,16 z"
         inkscape:connector-curvature="0" /></clipPath><clipPath
       id="clipPath394"><path
         id="path396"
         d="m 23.309,27.076 -0.582,0.164 c -0.165,0.035 -0.325,0.07 -0.485,0.109 l -0.019,0.02 c -0.411,0.308 -0.785,0.418 -1.129,0.328 l -0.02,0 -0.062,-0.02 c -0.059,-0.019 -0.106,-0.039 -0.137,-0.062 -0.039,0.004 -0.078,0.008 -0.121,0.015 -0.078,0.086 -0.152,0.165 -0.227,0.235 -0.066,0.082 -0.129,0.156 -0.183,0.215 l -0.063,0.078 c -0.246,0.262 -0.476,0.414 -0.691,0.465 -0.215,0.047 -0.524,0.039 -0.922,-0.024 -0.371,-0.039 -0.609,-0.082 -0.715,-0.14 -0.058,0.07 -0.125,0.132 -0.207,0.195 l -0.121,0.117 c 0.02,-0.023 0.035,-0.043 0.043,-0.058 -0.172,0.125 -0.387,0.234 -0.648,0.324 -0.247,0.101 -0.473,0.121 -0.684,0.062 l -0.238,-0.125 c -0.493,0.465 -0.95,0.696 -1.375,0.684 -0.243,-0.004 -0.52,-0.106 -0.836,-0.301 l -0.371,-0.23 c -0.168,0.121 -0.325,0.191 -0.469,0.211 -0.367,0.144 -0.742,0.175 -1.121,0.089 -0.371,-0.089 -0.621,-0.214 -0.75,-0.379 L 11.102,28.845 C 10.809,28.838 10.434,28.802 9.984,28.74 9.688,28.732 9.426,28.658 9.188,28.517 L 8.875,28.31 7.473,28.396 C 6.91,28.435 6.5,28.369 6.234,28.205 6.027,28.009 5.844,27.873 5.684,27.791 5.527,27.677 5.387,27.486 5.258,27.216 5.207,27.111 5.172,26.99 5.148,26.853 4.91,26.795 4.699,26.697 4.516,26.56 4.48,26.529 4.449,26.494 4.418,26.455 4.23,26.388 4.051,26.314 3.883,26.244 L 1.422,24.638 C 1.414,24.623 1.398,24.599 1.387,24.58 1.371,24.56 1.359,24.537 1.348,24.517 L 1.328,24.478 C 1.32,24.463 1.316,24.451 1.309,24.435 1.297,24.408 1.281,24.38 1.27,24.357 1.25,24.314 1.23,24.275 1.215,24.236 1.191,24.166 1.176,24.099 1.16,24.033 1.152,24.009 1.145,23.982 1.141,23.951 l 0.004,-0.078 0,-0.078 0.003,-0.082 C 1.125,22.537 1.344,21.209 1.809,19.728 1.82,19.681 1.836,19.634 1.852,19.588 1.895,19.447 1.938,19.31 1.98,19.173 2.012,19.091 2.039,19.009 2.066,18.935 l 0.868,-1.84 c 0.097,-0.101 0.257,-0.265 0.472,-0.488 0.383,-0.336 0.668,-0.527 0.856,-0.578 0.32,-0.043 0.765,-0.18 1.332,-0.406 l -0.047,0.238 c 0,0.082 0.117,0.125 0.355,0.129 0.43,0.012 0.766,-0.086 1.008,-0.293 0.188,-0.141 0.445,-0.219 0.77,-0.242 0.058,0 0.121,-0.004 0.179,-0.016 L 8,15.443 c 0.211,0.004 0.559,-0.027 1.043,-0.094 0.195,-0.039 0.375,-0.047 0.539,-0.027 0.164,0.016 0.289,0.058 0.375,0.133 l 1.242,0.031 1.727,-0.199 c 0.183,0.004 0.304,0.062 0.355,0.172 0.051,0.132 0.235,0.203 0.555,0.211 l 2.043,-0.188 c 1.523,-0.094 2.644,-0.133 3.367,-0.113 0.078,0 0.344,0.074 0.793,0.219 0.106,0.003 0.453,-0.055 1.043,-0.172 0.309,0.007 0.73,0.129 1.273,0.371 0.028,0.004 0.055,0.011 0.079,0.023 0.554,0.278 1.043,0.426 1.468,0.438 0.16,0.004 0.532,0.183 1.11,0.547 0.015,0.011 0.035,0.023 0.058,0.043 l 0.961,1.484 c 0.207,0.473 0.387,0.976 0.543,1.512 0.016,0.066 0.035,0.132 0.055,0.203 l 0.019,0.039 c 0.114,0.429 0.211,0.859 0.286,1.289 l 0.035,0.18 c 0.07,0.375 0.117,0.75 0.152,1.125 l 0.059,1.703 c -0.028,1.093 -1.317,1.992 -3.871,2.703 z"
         inkscape:connector-curvature="0" /></clipPath><clipPath
       id="clipPath402"><path
         id="path404"
         d="m 3,15 21,0 0,3 -21,0 0,-3 z"
         inkscape:connector-curvature="0" /></clipPath><clipPath
       id="clipPath418"><path
         id="path420"
         d="m 0,31.306 26,0 0,-9 -26,0 0,9 z"
         inkscape:connector-curvature="0" /></clipPath><clipPath
       id="clipPath424"><path
         id="path426"
         d="m 21.949,34.353 -0.586,0.168 c -0.16,0.031 -0.32,0.07 -0.48,0.106 l -0.02,0.019 c -0.41,0.313 -0.785,0.422 -1.129,0.332 l -0.019,0 -0.063,-0.019 c -0.062,-0.02 -0.105,-0.043 -0.136,-0.067 -0.039,0.004 -0.078,0.012 -0.121,0.02 -0.079,0.086 -0.157,0.164 -0.227,0.234 -0.066,0.082 -0.129,0.152 -0.184,0.215 l -0.062,0.078 c -0.246,0.258 -0.477,0.414 -0.692,0.461 -0.214,0.051 -0.523,0.043 -0.921,-0.023 -0.371,-0.036 -0.61,-0.082 -0.715,-0.137 -0.059,0.07 -0.125,0.133 -0.207,0.195 l -0.121,0.117 c 0.019,-0.027 0.035,-0.047 0.039,-0.058 -0.168,0.125 -0.383,0.23 -0.649,0.324 -0.242,0.098 -0.468,0.121 -0.679,0.062 l -0.239,-0.128 c -0.492,0.468 -0.949,0.699 -1.379,0.687 -0.238,-0.008 -0.515,-0.109 -0.832,-0.301 l -0.375,-0.23 c -0.164,0.117 -0.32,0.187 -0.464,0.207 -0.372,0.148 -0.747,0.18 -1.122,0.094 C 10.195,36.619 9.945,36.49 9.816,36.33 L 9.742,36.127 C 9.445,36.119 9.074,36.084 8.621,36.017 8.328,36.009 8.066,35.939 7.828,35.798 L 7.512,35.591 6.109,35.673 C 5.551,35.713 5.137,35.65 4.875,35.482 4.668,35.291 4.484,35.154 4.324,35.068 4.168,34.959 4.027,34.767 3.898,34.498 3.848,34.392 3.812,34.271 3.789,34.134 3.551,34.076 3.34,33.978 3.156,33.838 3.121,33.81 3.09,33.775 3.059,33.736 2.871,33.67 2.691,33.595 2.523,33.521 L 0.062,31.92 C 0.055,31.9 0.039,31.88 0.023,31.861 0.012,31.838 0,31.818 -0.012,31.798 l -0.019,-0.039 c -0.008,-0.015 -0.012,-0.031 -0.02,-0.043 -0.011,-0.027 -0.027,-0.054 -0.039,-0.082 -0.023,-0.039 -0.039,-0.078 -0.055,-0.121 -0.023,-0.066 -0.043,-0.133 -0.054,-0.199 -0.008,-0.023 -0.016,-0.051 -0.02,-0.082 l 0,-0.078 c 0.004,-0.027 0.004,-0.055 0.004,-0.082 l 0,-0.078 c -0.023,-1.176 0.199,-2.504 0.664,-3.985 0.012,-0.046 0.028,-0.093 0.043,-0.14 0.043,-0.141 0.086,-0.278 0.129,-0.418 0.031,-0.082 0.059,-0.16 0.086,-0.235 L 1.574,24.377 C 1.672,24.275 1.828,24.111 2.047,23.888 2.43,23.552 2.715,23.357 2.902,23.31 3.223,23.263 3.668,23.127 4.234,22.904 l -0.046,0.238 c -0.004,0.078 0.117,0.121 0.355,0.129 0.426,0.012 0.762,-0.086 1.008,-0.297 0.187,-0.136 0.445,-0.215 0.765,-0.238 0.063,0 0.125,-0.004 0.184,-0.016 l 0.137,0.004 c 0.215,0.004 0.562,-0.027 1.043,-0.094 0.195,-0.039 0.379,-0.05 0.543,-0.027 0.164,0.016 0.289,0.059 0.375,0.129 l 1.242,0.031 1.722,-0.195 c 0.188,0.004 0.305,0.059 0.36,0.168 0.047,0.137 0.234,0.207 0.555,0.215 l 2.043,-0.188 c 1.523,-0.093 2.644,-0.133 3.363,-0.117 0.082,0.004 0.347,0.078 0.797,0.223 0.105,0 0.453,-0.055 1.043,-0.176 0.308,0.008 0.73,0.133 1.273,0.375 0.027,0.004 0.055,0.008 0.078,0.02 0.555,0.281 1.043,0.425 1.469,0.437 0.16,0.004 0.531,0.188 1.105,0.551 0.02,0.012 0.04,0.023 0.063,0.039 l 0.961,1.484 c 0.207,0.477 0.387,0.981 0.543,1.516 0.015,0.066 0.035,0.133 0.055,0.203 l 0.019,0.039 c 0.113,0.43 0.211,0.856 0.285,1.289 l 0.035,0.18 c 0.067,0.375 0.118,0.75 0.153,1.125 l 0.058,1.699 c -0.027,1.094 -1.32,1.996 -3.871,2.703 z"
         inkscape:connector-curvature="0" /></clipPath><clipPath
       id="clipPath432"><path
         id="path434"
         d="m 2,23 21,0 0,2 -21,0 0,-2 z"
         inkscape:connector-curvature="0" /></clipPath><clipPath
       id="clipPath448"><path
         id="path450"
         d="m 0,31.306 27,0 0,-2 -27,0 0,2 z"
         inkscape:connector-curvature="0" /></clipPath><clipPath
       id="clipPath454"><path
         id="path456"
         d="m 22.711,41.513 -0.586,0.168 c -0.16,0.032 -0.32,0.071 -0.484,0.106 l -0.02,0.019 c -0.406,0.313 -0.785,0.422 -1.129,0.332 l -0.019,0 -0.059,-0.023 c -0.062,-0.016 -0.109,-0.039 -0.141,-0.063 -0.035,0.004 -0.078,0.012 -0.117,0.02 -0.082,0.086 -0.156,0.164 -0.226,0.234 -0.071,0.082 -0.133,0.153 -0.188,0.215 l -0.062,0.078 c -0.246,0.258 -0.477,0.414 -0.692,0.461 -0.215,0.051 -0.519,0.043 -0.918,-0.023 -0.371,-0.035 -0.613,-0.082 -0.718,-0.137 -0.055,0.07 -0.125,0.133 -0.204,0.195 l -0.125,0.118 c 0.024,-0.028 0.036,-0.047 0.043,-0.059 -0.168,0.121 -0.382,0.23 -0.648,0.32 -0.242,0.102 -0.469,0.125 -0.684,0.067 L 15.5,43.412 c -0.492,0.468 -0.953,0.695 -1.379,0.687 -0.238,-0.008 -0.516,-0.109 -0.832,-0.301 l -0.375,-0.23 c -0.168,0.117 -0.324,0.187 -0.465,0.207 -0.371,0.148 -0.746,0.18 -1.125,0.094 -0.371,-0.09 -0.621,-0.219 -0.75,-0.379 L 10.5,43.287 C 10.207,43.279 9.836,43.244 9.383,43.177 9.09,43.17 8.824,43.099 8.59,42.959 L 8.273,42.752 6.871,42.834 C 6.309,42.873 5.898,42.81 5.637,42.642 5.426,42.451 5.242,42.314 5.086,42.228 4.93,42.119 4.785,41.927 4.66,41.658 4.609,41.548 4.57,41.427 4.551,41.295 4.309,41.236 4.098,41.138 3.918,40.998 3.883,40.97 3.848,40.935 3.82,40.896 3.629,40.826 3.449,40.755 3.285,40.681 L 0.824,39.08 C 0.812,39.06 0.801,39.041 0.785,39.017 0.773,38.998 0.762,38.978 0.746,38.959 L 0.727,38.916 C 0.723,38.904 0.715,38.888 0.707,38.877 0.695,38.849 0.684,38.822 0.672,38.795 0.648,38.755 0.629,38.716 0.613,38.673 0.594,38.607 0.574,38.541 0.559,38.474 0.551,38.451 0.547,38.423 0.539,38.392 l 0.004,-0.078 c 0.004,-0.027 0.004,-0.055 0.004,-0.082 l 0,-0.078 C 0.523,36.978 0.742,35.65 1.207,34.17 1.223,34.123 1.234,34.076 1.25,34.029 1.297,33.888 1.34,33.752 1.383,33.611 1.41,33.529 1.438,33.451 1.469,33.373 L 2.336,31.537 C 2.434,31.435 2.59,31.271 2.809,31.048 3.191,30.713 3.473,30.517 3.664,30.47 3.984,30.423 4.426,30.287 4.992,30.064 l -0.047,0.238 c 0,0.078 0.117,0.121 0.36,0.129 0.425,0.012 0.761,-0.09 1.007,-0.297 0.188,-0.136 0.442,-0.218 0.766,-0.238 0.063,0 0.121,-0.004 0.18,-0.016 l 0.14,0.004 c 0.215,0.004 0.563,-0.027 1.043,-0.093 0.196,-0.039 0.375,-0.051 0.539,-0.028 0.165,0.016 0.29,0.059 0.379,0.129 l 1.239,0.031 1.726,-0.195 c 0.188,0.004 0.305,0.059 0.356,0.168 0.05,0.137 0.234,0.207 0.554,0.215 l 2.047,-0.188 c 1.524,-0.097 2.645,-0.132 3.364,-0.117 0.078,0.004 0.343,0.078 0.793,0.223 0.109,0 0.457,-0.055 1.046,-0.176 0.305,0.008 0.731,0.133 1.27,0.375 0.031,0.004 0.055,0.008 0.082,0.02 0.551,0.281 1.039,0.425 1.469,0.437 0.16,0.004 0.527,0.188 1.105,0.551 0.016,0.012 0.035,0.023 0.059,0.039 l 0.965,1.484 c 0.203,0.477 0.386,0.981 0.539,1.516 0.019,0.066 0.035,0.133 0.054,0.199 l 0.02,0.043 c 0.117,0.43 0.211,0.856 0.289,1.289 l 0.035,0.18 c 0.067,0.375 0.117,0.75 0.152,1.125 l 0.055,1.699 c -0.027,1.094 -1.316,1.996 -3.867,2.703 z"
         inkscape:connector-curvature="0" /></clipPath><clipPath
       id="clipPath462"><path
         id="path464"
         d="m 3,30 21,0 0,2 -21,0 0,-2 z"
         inkscape:connector-curvature="0" /></clipPath></defs><g
     id="g10"
     transform="matrix(1.25,0,0,-1.25,22900.002,13727.995)"><g
       id="g474"><g
         id="g4470"
         transform="matrix(510.40339,0,0,490.35654,-18319.387,0.37091211)"><g
           id="g12"><g
             id="g14"><g
               id="g16"><g
                 id="g22"><path
                   inkscape:connector-curvature="0"
                   d="m 22.207,13.959 c 2.539,0.773 3.82,1.711 3.84,2.82 0,-1.402 -0.215,-2.832 -0.645,-4.281 C 24.562,9.685 23.059,7.58 20.879,6.173 L 20.539,5.97 C 19.77,5.404 18.727,4.951 17.414,4.611 16.055,4.271 14.59,4.099 13.027,4.099 11.465,4.099 10.012,4.271 8.676,4.611 7.363,4.951 6.309,5.404 5.512,5.97 L 5.141,6.173 c -2.246,1.473 -3.774,3.684 -4.59,6.629 -0.406,1.485 -0.586,2.809 -0.547,3.981 0,-1.09 1.269,-2.031 3.808,-2.824 2.54,-0.77 5.614,-1.153 9.215,-1.153 3.582,-0.004 6.641,0.383 9.18,1.153 z"
                   style="fill:url(#linearGradient24);fill-rule:evenodd"
                   id="path30" /></g></g></g><path
             inkscape:connector-curvature="0"
             d="m 22.613,11.275 c 0.977,0.18 1.907,0.59 2.789,1.223 -0.066,-0.25 -0.214,-0.649 -0.441,-1.192 -0.93,-0.996 -2.086,-1.574 -3.469,-1.734 -0.726,-0.067 -1.937,0.012 -3.637,0.238 -0.363,0.047 -1.871,0.137 -4.523,0.274 -2.039,0.113 -3.594,0.328 -4.656,0.648 -1.043,0.293 -1.895,0.711 -2.551,1.254 -0.523,0.434 -0.996,1.012 -1.43,1.734 1.27,-0.293 2.426,-0.496 3.469,-0.609 0.613,-0.68 1.586,-1.215 2.926,-1.598 1.109,-0.297 2.312,-0.445 3.601,-0.445 0.84,0 2.02,-0.055 3.536,-0.168 1.453,-0.023 2.914,0.102 4.386,0.375 z"
             style="fill:#a97c5b;fill-rule:evenodd"
             id="path32" /><path
             inkscape:connector-curvature="0"
             d="m 23.77,12.533 c -1.11,-0.684 -2.821,-0.942 -5.133,-0.785 -1.883,0.136 -3.707,0.488 -5.473,1.054 1.813,0.047 3.297,0.137 4.453,0.274 1.633,-0.68 3.278,-0.727 4.93,-0.137 1.199,0.406 2.324,1.109 3.363,2.109 L 25.777,14.095 C 25.211,13.529 24.539,13.009 23.77,12.533 Z"
             style="fill:#a97c5b;fill-rule:evenodd"
             id="path34" /><path
             inkscape:connector-curvature="0"
             d="m 20.98,7.943 c 0.887,-0.273 0.887,-0.715 0,-1.328 -0.906,-0.613 -1.855,-0.793 -2.851,-0.543 -0.93,0.25 -1.715,0.609 -2.348,1.086 -0.613,0.476 -0.859,0.851 -0.746,1.121 0.156,0.476 0.985,0.625 2.481,0.441 1.086,-0.132 2.242,-0.394 3.464,-0.777 z"
             style="fill:#a97c5b;fill-rule:evenodd"
             id="path36" /><g
             id="g38"><g
               mask="url(#mask46)"
               id="g54"><g
                 id="g66"><g
                   clip-path="url(#clipPath58)"
                   id="g68"><g
                     transform="translate(0,-0.69374)"
                     id="g70"><g
                       id="g74"><g
                         clip-path="url(#clipPath62)"
                         id="g76"><g
                           id="g78"><path
                             inkscape:connector-curvature="0"
                             d="m 1.645,12.164 c -0.407,1.633 -0.633,2.91 -0.68,3.84 0.183,-0.156 0.543,-0.383 1.09,-0.68 -0.024,-1.269 0.136,-2.433 0.476,-3.5 C 2.961,10.484 3.641,9.477 4.57,8.797 5.68,8.004 7.062,7.359 8.719,6.859 10.465,6.316 11.492,5.941 11.812,5.738 11.949,5.648 12.105,5.477 12.289,5.227 12.445,4.977 12.57,4.832 12.66,4.785 L 10.621,4.922 8.277,5.875 C 6.121,6.801 5,7.289 4.91,7.336 3.301,8.402 2.211,10.008 1.645,12.164 Z"
                             style="fill:#dbb48e;fill-rule:evenodd"
                             id="path80" /><path
                             inkscape:connector-curvature="0"
                             d="M 15.383,6.621 C 16.219,6.055 16.957,5.625 17.59,5.328 L 15.754,4.957 C 14.805,5.363 13.738,5.93 12.559,6.656 12.176,6.906 11.086,7.254 9.297,7.711 7.617,8.141 6.543,8.559 6.066,8.969 5.203,9.715 4.57,10.621 4.16,11.688 c -0.316,0.769 -0.555,1.8 -0.711,3.093 l 0.645,-0.203 c 0.383,-1.68 1.312,-3.094 2.789,-4.25 0.906,-0.703 2.105,-1.215 3.601,-1.531 1.586,-0.34 2.598,-0.645 3.028,-0.918 0.386,-0.25 1.008,-0.668 1.871,-1.258 z"
                             style="fill:#dbb48e;fill-rule:evenodd"
                             id="path82" /></g></g></g></g></g></g></g></g><g
             id="g84"><g
               mask="url(#mask92)"
               id="g100"><g
                 id="g112"><g
                   clip-path="url(#clipPath104)"
                   id="g114"><g
                     transform="translate(0,-0.69374)"
                     id="g116"><g
                       id="g120"><g
                         clip-path="url(#clipPath108)"
                         id="g122"><g
                           id="g124"><path
                             inkscape:connector-curvature="0"
                             d="M 26.031,17.41 C 26.027,16.016 25.812,14.602 25.383,13.16 24.547,10.352 23.039,8.242 20.863,6.836 l -0.34,-0.203 c -1.25,-0.906 -2.992,-1.485 -5.238,-1.735 1.11,0.297 1.973,0.625 2.586,0.989 1.063,0.59 2.027,1.461 2.887,2.617 0.726,0.93 1.137,2.027 1.226,3.297 0.043,0.703 -0.011,1.609 -0.172,2.719 2.786,0.765 4.192,1.726 4.219,2.89 z"
                             style="fill:#17110c;fill-rule:evenodd"
                             id="path126" /></g></g></g></g></g></g></g></g><g
             id="g128"><g
               mask="url(#mask136)"
               id="g144"><g
                 id="g156"><g
                   clip-path="url(#clipPath148)"
                   id="g158"><g
                     transform="translate(0,-0.69374)"
                     id="g160"><g
                       id="g164"><g
                         clip-path="url(#clipPath152)"
                         id="g166"><g
                           id="g168"><path
                             inkscape:connector-curvature="0"
                             d="m 1.688,15.484 c 0.996,-0.519 2.289,-0.953 3.874,-1.293 -0.07,-1.019 -0.07,-1.957 0,-2.82 C 5.629,10.012 6.219,8.641 7.328,7.258 7.895,6.578 8.453,6.031 8.996,5.625 8.543,5.715 7.996,5.93 7.363,6.27 6.07,6.93 4.926,7.859 3.93,9.059 3.203,9.898 2.637,11.086 2.23,12.629 1.957,13.582 1.777,14.531 1.688,15.484 Z"
                             style="fill:#ffffff;fill-rule:evenodd"
                             id="path170" /></g></g></g></g></g></g></g></g><g
             id="g172"><g
               id="g174"><g
                 id="g180"><path
                   inkscape:connector-curvature="0"
                   d="m 26.047,16.779 c 0,-1.086 -1.27,-2.027 -3.805,-2.82 -2.562,-0.77 -5.633,-1.157 -9.215,-1.157 -3.605,0 -6.675,0.387 -9.215,1.157 -2.539,0.793 -3.808,1.734 -3.808,2.82 0,1.113 1.269,2.055 3.808,2.824 2.54,0.77 5.61,1.156 9.215,1.156 3.602,0 6.676,-0.386 9.215,-1.156 2.535,-0.769 3.805,-1.711 3.805,-2.824 z"
                   style="fill:url(#linearGradient182);fill-rule:evenodd"
                   id="path188" /></g></g></g><g
             id="g190"><g
               id="g192"><g
                 id="g198"><path
                   inkscape:connector-curvature="0"
                   d="m 25.164,17.088 c 0,-0.93 -1.168,-1.711 -3.5,-2.348 -2.336,-0.656 -5.156,-0.985 -8.469,-0.985 -3.308,0 -6.14,0.329 -8.5,0.985 -2.332,0.637 -3.5,1.418 -3.5,2.348 0,0.906 1.168,1.687 3.5,2.347 2.36,0.656 5.192,0.985 8.5,0.985 3.313,0 6.133,-0.329 8.469,-0.985 2.332,-0.66 3.5,-1.441 3.5,-2.347 z"
                   style="fill:url(#linearGradient200);fill-rule:evenodd"
                   id="path208" /></g></g></g><path
             inkscape:connector-curvature="0"
             d="m 22.75,15.08 c -1.926,-0.77 -4.555,-1.2 -7.887,-1.289 -3.629,-0.137 -6.675,0.089 -9.144,0.679 -2.043,0.477 -3.426,1.121 -4.149,1.938 -0.113,0.137 -0.16,0.273 -0.136,0.406 0.043,0.16 0.16,0.274 0.339,0.34 0.161,0.07 0.286,0.219 0.375,0.445 0.133,0.293 0.227,0.465 0.27,0.508 0.184,0.184 0.387,0.32 0.613,0.41 0.024,0.137 0.059,0.281 0.102,0.442 0.07,0.293 0.172,0.488 0.305,0.578 0.207,0.136 0.421,0.238 0.648,0.304 0.023,0.118 0.066,0.227 0.137,0.34 0.113,0.274 0.257,0.465 0.441,0.582 0.16,0.067 0.34,0.203 0.543,0.407 0.273,0.136 0.691,0.183 1.258,0.136 l 1.394,-0.101 0.305,0.203 c 0.25,0.113 0.512,0.18 0.781,0.203 0.477,0.047 0.852,0.07 1.125,0.07 l 0.102,0.203 c 0.133,0.157 0.383,0.27 0.746,0.34 0.547,0.114 1.066,0 1.566,-0.34 l 0.407,0.239 c 0.316,0.179 0.601,0.273 0.851,0.273 0.406,0 0.86,-0.242 1.36,-0.715 l 0.238,0.102 c 0.203,0.066 0.43,0.047 0.68,-0.07 0.406,-0.157 0.714,-0.36 0.918,-0.61 l 0.578,0.102 c 0.406,0.066 0.722,0.066 0.949,0 0.363,-0.09 0.828,-0.489 1.394,-1.192 l 0.34,0.102 c 0.25,0.023 0.477,-0.043 0.68,-0.203 0.297,-0.274 0.559,-0.578 0.785,-0.918 l 0.543,-0.031 c 0.387,-0.071 0.668,-0.184 0.852,-0.344 0.293,-0.227 0.5,-0.586 0.609,-1.086 l 0.375,-0.305 0,-0.512 c 0.566,-0.089 0.816,-0.203 0.75,-0.339 -0.207,-0.391 -0.887,-0.821 -2.043,-1.297 z"
             style="fill:#fffff5;fill-rule:evenodd"
             id="path210" /><path
             inkscape:connector-curvature="0"
             d="M 7.078,20.009 C 7.328,19.853 7.574,19.818 7.824,19.908 7.691,19.681 7.473,19.627 7.18,19.74 6.906,19.806 6.637,20.045 6.363,20.451 L 6.328,20.384 C 6.215,20.111 5.965,19.99 5.582,20.009 L 6.328,19.228 C 6.578,18.959 6.863,19.091 7.18,19.638 7.066,19.162 6.828,18.9 6.465,18.853 6.215,18.834 6.012,18.877 5.855,18.99 5.762,19.06 5.637,19.205 5.48,19.431 c -0.089,0.137 -0.316,0.25 -0.679,0.34 l -0.512,0.07 0.477,0.204 c 0.339,0.113 0.621,0.183 0.847,0.203 0.364,0 0.5,0.226 0.41,0.683 l 0.204,-0.105 0.203,0.105 c 0.113,0 0.238,0.055 0.375,0.168 L 6.84,21.064 C 6.883,21.045 6.895,20.998 6.871,20.931 6.852,20.838 6.758,20.783 6.602,20.759 l 0.101,-0.273 c 0.09,-0.203 0.215,-0.359 0.375,-0.477 z"
             style="fill:#c4c4af;fill-rule:evenodd"
             id="path212" /><path
             inkscape:connector-curvature="0"
             d="m 7.215,20.588 c 0.453,0.07 0.633,0.183 0.543,0.343 l -0.137,0.27 c 0.547,-0.18 0.656,-0.406 0.34,-0.68 C 7.781,20.361 7.598,20.33 7.418,20.42 l -0.203,0.168 z"
             style="fill:#c4c4af;fill-rule:evenodd"
             id="path214" /><path
             inkscape:connector-curvature="0"
             d="m 3.336,15.966 c 0.434,0.02 0.59,0.204 0.476,0.543 0.387,-0.726 0.387,-1.097 0,-1.121 -0.453,-0.023 -0.882,0.055 -1.289,0.239 -0.566,0.25 -0.953,0.679 -1.156,1.293 -0.047,0.179 0.18,0.089 0.68,-0.274 0.633,-0.476 1.062,-0.703 1.289,-0.68 z"
             style="fill:#c4c4af;fill-rule:evenodd"
             id="path216" /><path
             inkscape:connector-curvature="0"
             d="m 8.879,18.38 c 0.387,-0.16 0.535,-0.093 0.441,0.204 0.16,-0.25 0.16,-0.442 0,-0.579 -0.203,-0.16 -0.453,-0.089 -0.746,0.204 -0.113,0.113 -0.418,0.238 -0.918,0.375 -0.41,0.136 -0.566,0.203 -0.476,0.203 0.363,0.047 0.929,-0.09 1.699,-0.407 z"
             style="fill:#c4c4af;fill-rule:evenodd"
             id="path218" /><path
             inkscape:connector-curvature="0"
             d="m 9.32,14.232 c 0.407,0.129 0.621,0.223 0.649,0.289 -0.071,-0.398 -0.207,-0.609 -0.41,-0.629 -0.614,0 -1.032,0.055 -1.258,0.168 -0.137,0.07 -0.203,0.192 -0.203,0.375 L 8.133,14.709 8.473,14.4 C 8.766,14.22 9.051,14.162 9.32,14.232 Z"
             style="fill:#c4c4af;fill-rule:evenodd"
             id="path220" /><path
             inkscape:connector-curvature="0"
             d="m 10.887,20.861 c 0.066,-0.09 0.179,-0.25 0.34,-0.477 0.179,-0.179 0.394,-0.273 0.644,-0.273 0.227,0 0.375,0.035 0.441,0.105 0.028,0.028 0.047,0.051 0.051,0.067 0.094,-0.297 -0.015,-0.453 -0.32,-0.477 -0.316,-0.023 -0.512,-0.023 -0.578,0 -0.137,0 -0.285,0.067 -0.442,0.203 l -0.886,0.512 -0.032,0.035 c 0.043,-0.25 -0.101,-0.398 -0.441,-0.445 -0.34,-0.043 -0.535,-0.055 -0.578,-0.031 -0.024,0 -0.195,0.168 -0.512,0.508 l 0.34,-0.204 c 0.25,-0.113 0.465,-0.113 0.645,0 0.273,0.161 0.433,0.274 0.476,0.34 l 0,0.102 -0.441,0.035 c -0.25,0.023 -0.477,0.102 -0.68,0.238 l -0.203,0.203 1.055,-0.101 c 0.406,0 0.453,0.09 0.136,0.273 l 0.371,-0.203 0.172,-0.172 c 0.157,0 0.305,-0.078 0.442,-0.238 z"
             style="fill:#c4c4af;fill-rule:evenodd"
             id="path222" /><path
             inkscape:connector-curvature="0"
             d="m 10.238,19.025 c -0.09,-0.203 -0.351,-0.25 -0.781,-0.137 -0.41,0.09 -0.703,0.25 -0.883,0.477 l -0.375,0.41 1.055,-0.41 c 0.293,-0.156 0.508,-0.192 0.644,-0.102 0.161,0.09 0.172,0.192 0.036,0.305 0.339,-0.09 0.441,-0.27 0.304,-0.543 z"
             style="fill:#c4c4af;fill-rule:evenodd"
             id="path224" /><path
             inkscape:connector-curvature="0"
             d="m 11.836,18.209 c 0.41,-0.114 0.637,-0.079 0.68,0.101 0.25,-0.137 0.351,-0.269 0.308,-0.406 -0.023,-0.113 -0.195,-0.16 -0.512,-0.137 -0.316,0.043 -0.644,0.238 -0.984,0.578 l 0.508,-0.136 z"
             style="fill:#c4c4af;fill-rule:evenodd"
             id="path226" /><path
             inkscape:connector-curvature="0"
             d="m 12.074,22.052 c -0.09,0.043 -0.101,0.067 -0.031,0.067 0.156,-0.047 0.328,-0.137 0.508,-0.274 l -0.168,-0.304 c -0.41,-0.274 -0.828,-0.387 -1.258,-0.34 -0.25,0.023 -0.477,0.078 -0.684,0.168 l -0.238,0.172 c 0.231,-0.114 0.578,-0.125 1.055,-0.036 0.387,0.094 0.668,0.196 0.851,0.309 0.067,0.066 0.055,0.149 -0.035,0.238 z"
             style="fill:#c4c4af;fill-rule:evenodd"
             id="path228" /><path
             inkscape:connector-curvature="0"
             d="m 11.566,18.619 c -0.339,0.043 -0.578,0.191 -0.714,0.441 -0.09,0.18 -0.125,0.36 -0.102,0.543 0.613,-0.59 1.02,-0.758 1.223,-0.508 l 0.172,0.203 0,-0.203 c 0.113,-0.226 0.382,-0.386 0.816,-0.476 0.453,-0.09 0.691,0.011 0.715,0.304 0.203,-0.386 0.148,-0.601 -0.172,-0.648 -0.227,-0.043 -0.477,0.023 -0.746,0.207 -0.297,0.156 -0.5,0.359 -0.613,0.613 -0.047,-0.343 -0.239,-0.5 -0.579,-0.476 z"
             style="fill:#c4c4af;fill-rule:evenodd"
             id="path230" /><path
             inkscape:connector-curvature="0"
             d="m 14.32,21.271 c -0.523,-0.117 -1.043,0 -1.566,0.34 l 0.476,-0.07 c 0.34,-0.024 0.59,-0.012 0.75,0.035 0.27,0.047 0.508,0.183 0.715,0.406 l 0.407,-0.305 C 14.965,21.474 14.703,21.338 14.32,21.271 Z"
             style="fill:#c4c4af;fill-rule:evenodd"
             id="path232" /><path
             inkscape:connector-curvature="0"
             d="m 14.691,18.72 c -0.203,-0.316 -0.699,-0.023 -1.496,0.883 l 0.887,-0.441 c 0.156,-0.047 0.25,0.066 0.27,0.34 0.363,-0.274 0.476,-0.532 0.339,-0.782 z"
             style="fill:#c4c4af;fill-rule:evenodd"
             id="path234" /><path
             inkscape:connector-curvature="0"
             d="m 7.758,16.408 -0.442,0.476 0.204,0.137 c -0.09,0.02 -0.286,0.121 -0.579,0.305 -0.046,0.023 -0.168,0.137 -0.375,0.34 0.047,-0.293 -0.031,-0.477 -0.238,-0.543 l 0,-0.512 c -0.019,-0.316 0.16,-0.621 0.547,-0.918 0.406,-0.27 0.711,-0.305 0.918,-0.102 0.113,0.114 0.168,0.25 0.168,0.411 L 7.758,16.408 Z M 19.25,14.47 c 0.383,-0.047 0.691,0.024 0.918,0.203 0.227,0.204 0.09,0.317 -0.41,0.34 -0.25,0 -0.488,-0.078 -0.715,-0.238 -0.203,-0.18 -0.133,-0.281 0.207,-0.305 z m 0.168,1.121 c 0.297,-0.293 0.648,-0.41 1.055,-0.339 0.386,0.089 0.261,0.351 -0.375,0.781 -0.27,0.203 -0.52,0.25 -0.746,0.137 -0.227,-0.114 -0.207,-0.305 0.066,-0.579 z m -0.949,-0.203 c -0.317,-0.07 -0.524,-0.25 -0.614,-0.547 -0.113,-0.269 0.012,-0.382 0.375,-0.339 0.383,0.07 0.622,0.261 0.715,0.578 0.09,0.297 -0.07,0.398 -0.476,0.308 z m -1.227,2.481 c 0.817,-0.34 1.281,-0.34 1.395,0 0.113,0.363 -0.215,0.601 -0.985,0.715 -0.297,0.046 -0.511,-0.024 -0.648,-0.204 -0.137,-0.207 -0.055,-0.375 0.238,-0.511 z m 0.817,-0.645 c -0.27,0.067 -0.477,0.078 -0.614,0.035 -0.156,-0.046 -0.168,-0.148 -0.031,-0.308 0.18,-0.203 0.566,-0.274 1.156,-0.203 0.52,0.066 0.352,0.226 -0.511,0.476 z m 0.238,-0.851 c -0.317,0.047 -0.613,0 -0.883,-0.137 -0.25,-0.133 -0.203,-0.27 0.137,-0.406 0.363,-0.16 0.715,-0.137 1.051,0.066 0.339,0.227 0.238,0.387 -0.305,0.477 z m 2.176,0.816 c -0.274,0.09 -0.614,0 -1.02,-0.273 -0.41,-0.25 -0.5,-0.407 -0.273,-0.477 0.25,-0.066 0.613,0.012 1.09,0.238 0.476,0.231 0.542,0.399 0.203,0.512 z m -0.746,0.035 c 0.429,0.203 0.406,0.418 -0.071,0.645 -0.25,0.09 -0.531,0.023 -0.851,-0.203 -0.317,-0.227 -0.36,-0.407 -0.133,-0.543 0.25,-0.16 0.598,-0.125 1.055,0.101 z m -3.266,-2.347 c -0.184,-0.114 -0.168,-0.25 0.035,-0.407 0.227,-0.183 0.496,-0.218 0.813,-0.101 0.32,0.113 0.238,0.281 -0.235,0.508 -0.226,0.113 -0.433,0.113 -0.613,0 z m -0.102,0.851 c -0.25,-0.023 -0.293,-0.137 -0.136,-0.34 0.183,-0.226 0.429,-0.328 0.75,-0.308 0.316,0.023 0.316,0.172 0,0.445 -0.184,0.18 -0.387,0.246 -0.614,0.203 z M 15.441,14.4 c -0.183,0.07 -0.375,0.059 -0.578,-0.031 -0.183,-0.09 -0.136,-0.172 0.137,-0.239 0.27,-0.07 0.453,-0.046 0.543,0.067 0.09,0.09 0.059,0.16 -0.102,0.203 z m -0.07,0.918 0.238,0.238 c 0.024,0.047 0.024,0.09 0,0.137 -0.269,-0.09 -0.644,0.012 -1.121,0.309 l -0.172,0.132 c 0.047,-0.269 -0.031,-0.464 -0.238,-0.578 -0.34,-0.156 -0.566,-0.25 -0.68,-0.273 -0.203,-0.02 -0.394,0.058 -0.578,0.242 -0.179,0.223 -0.519,0.453 -1.019,0.68 -0.27,-0.114 -0.531,-0.012 -0.781,0.304 l -0.34,0.543 0.101,-0.371 c 0.024,-0.183 -0.078,-0.34 -0.308,-0.476 -0.227,-0.137 -0.496,-0.16 -0.813,-0.071 -0.273,0.071 -0.5,0.239 -0.683,0.512 L 8.809,17.052 C 8.719,16.849 8.492,16.771 8.129,16.814 8.152,16.795 8.176,16.658 8.195,16.408 L 8.367,15.896 C 8.57,15.58 8.867,15.42 9.25,15.42 9.742,15.42 9.992,15.513 10,15.693 9.996,15.4 9.953,15.205 9.863,15.115 c 0.34,-0.34 0.68,-0.512 1.02,-0.512 0.406,-0.019 0.613,0.125 0.613,0.445 -0.094,0.27 -0.195,0.497 -0.308,0.68 l 0.339,-0.41 c 0.297,-0.25 0.547,-0.305 0.75,-0.168 0.203,0.156 0.328,0.27 0.375,0.34 -0.07,-0.297 -0.125,-0.477 -0.172,-0.547 l 0.172,-0.133 c 0.227,-0.297 0.508,-0.488 0.848,-0.578 0.34,-0.07 0.566,0.012 0.68,0.238 0.093,0.203 0.183,0.348 0.273,0.442 l 0.07,0.269 0.102,-0.269 c 0.113,-0.16 0.293,-0.239 0.543,-0.239 0.363,-0.023 0.602,0.114 0.715,0.407 0,0.136 -0.082,0.218 -0.238,0.238 l -0.274,0 z m 1.703,0.887 c 0.156,0.136 0.114,0.34 -0.136,0.609 -0.227,0.25 -0.489,0.41 -0.782,0.477 -0.183,0.047 -0.32,0 -0.41,-0.137 -0.09,-0.156 -0.043,-0.348 0.137,-0.578 0.476,-0.543 0.871,-0.668 1.191,-0.371 z m -1.258,2.445 c -0.183,0.047 -0.296,-0.012 -0.339,-0.168 -0.047,-0.16 0.043,-0.352 0.269,-0.578 0.227,-0.207 0.465,-0.328 0.715,-0.375 0.227,-0.024 0.398,0.012 0.512,0.101 0.089,0.09 -0.012,0.274 -0.309,0.543 -0.293,0.274 -0.578,0.434 -0.848,0.477 z m 1.289,1.02 c -0.269,0.23 -0.566,0.218 -0.882,-0.032 -0.317,-0.226 -0.239,-0.465 0.238,-0.715 0.477,-0.25 0.805,-0.261 0.984,-0.035 0.16,0.227 0.047,0.489 -0.34,0.782 z m -1.968,-0.305 c -0.071,-0.113 -0.024,-0.215 0.133,-0.305 0.16,-0.137 0.332,-0.125 0.511,0.035 0.184,0.133 0.102,0.246 -0.238,0.34 -0.18,0.067 -0.316,0.043 -0.406,-0.07 z m 0.34,1.258 c -0.227,0.023 -0.399,-0.024 -0.512,-0.137 -0.16,-0.137 -0.055,-0.316 0.305,-0.543 0.476,-0.293 0.906,-0.281 1.292,0.035 0.34,0.293 -0.023,0.508 -1.085,0.645 z m 4.25,-2.348 c 0.382,0.184 0.347,0.32 -0.102,0.41 -0.207,0.047 -0.445,-0.012 -0.715,-0.172 -0.25,-0.156 -0.285,-0.281 -0.105,-0.371 0.25,-0.094 0.558,-0.047 0.922,0.133 z m -0.036,1.363 c -0.25,0.067 -0.441,0 -0.578,-0.203 -0.16,-0.207 -0.113,-0.34 0.137,-0.41 0.27,-0.066 0.508,-0.012 0.715,0.172 0.18,0.203 0.09,0.348 -0.274,0.441 z m 0.848,0.34 c -0.227,0.09 -0.383,0.113 -0.473,0.067 -0.113,-0.067 -0.035,-0.227 0.235,-0.477 0.387,-0.34 0.625,-0.406 0.715,-0.203 0.089,0.226 -0.067,0.43 -0.477,0.613 z m -2.344,-0.883 c 0.227,-0.613 0.465,-0.715 0.715,-0.308 0.203,0.363 -0.047,0.816 -0.75,1.359 -0.133,0.113 -0.191,0.024 -0.168,-0.273 0.02,-0.223 0.09,-0.485 0.203,-0.778 z m -0.304,0.27 c -0.184,0.137 -0.297,0.125 -0.344,-0.035 -0.043,-0.157 0.015,-0.293 0.172,-0.407 0.316,-0.273 0.5,-0.316 0.543,-0.136 0.023,0.16 -0.102,0.351 -0.371,0.578 z m -0.579,0.543 c 0.34,-0.25 0.508,-0.192 0.508,0.172 0.024,0.34 -0.191,0.601 -0.644,0.781 -0.25,0.113 -0.364,0.047 -0.34,-0.203 0.023,-0.25 0.18,-0.5 0.476,-0.75 z m 1.461,0.172 c -0.16,-0.137 -0.171,-0.239 -0.035,-0.309 0.184,-0.09 0.418,-0.019 0.715,0.207 0.293,0.203 0.238,0.305 -0.172,0.305 -0.179,0 -0.347,-0.067 -0.508,-0.203 z m 0,0.371 c 0.27,0.094 0.09,0.254 -0.546,0.48 -0.27,0.09 -0.43,0.102 -0.473,0.032 -0.07,-0.09 0.012,-0.215 0.238,-0.375 0.246,-0.18 0.508,-0.227 0.781,-0.137 z m 2.313,-2.684 c 0.359,0.047 0.305,0.192 -0.172,0.442 -0.203,0.113 -0.406,0.101 -0.613,-0.032 -0.203,-0.113 -0.227,-0.218 -0.067,-0.308 0.204,-0.114 0.489,-0.149 0.852,-0.102 z m 2.277,-1.562 c -0.16,-0.227 -0.09,-0.328 0.203,-0.309 0.364,0.024 0.692,0.16 0.989,0.41 0.293,0.25 0.144,0.34 -0.446,0.27 -0.339,-0.043 -0.586,-0.168 -0.746,-0.371 z m -2.449,-1.532 c 0.43,0.047 0.727,0.204 0.883,0.477 0.183,0.25 0.023,0.328 -0.477,0.238 -0.34,-0.047 -0.586,-0.191 -0.746,-0.441 -0.16,-0.231 -0.043,-0.32 0.34,-0.274 z m 1.328,1.293 c -0.16,-0.16 -0.16,-0.308 0,-0.441 0.18,-0.137 0.371,-0.059 0.578,0.238 0.227,0.34 0.227,0.485 0,0.442 -0.25,-0.047 -0.445,-0.125 -0.578,-0.239 z m -0.918,1.395 c -0.273,0.09 -0.445,0.055 -0.512,-0.102 -0.046,-0.136 0.047,-0.296 0.274,-0.48 0.383,-0.293 0.758,-0.359 1.121,-0.203 0.316,0.16 0.023,0.422 -0.883,0.785 z m 0.508,0.133 c 0.207,-0.133 0.34,0.047 0.41,0.547 0.067,0.453 -0.101,0.621 -0.512,0.507 -0.136,-0.019 -0.191,-0.179 -0.168,-0.476 0.02,-0.293 0.11,-0.488 0.27,-0.578 z m -0.238,-1.391 c -0.043,0.18 -0.282,0.317 -0.715,0.406 -0.317,0.047 -0.418,-0.066 -0.305,-0.339 0.09,-0.25 0.297,-0.364 0.614,-0.34 0.316,0.023 0.453,0.113 0.406,0.273 z m 1.804,0.508 c 0.204,0.047 0.383,0.16 0.543,0.34 0.161,0.183 0.125,0.273 -0.101,0.273 -0.203,0.02 -0.375,-0.082 -0.512,-0.308 -0.137,-0.227 -0.113,-0.328 0.07,-0.305 z m -0.273,0.988 c 0,0.449 -0.125,0.43 -0.375,-0.07 -0.09,-0.203 -0.113,-0.395 -0.066,-0.578 0.023,-0.156 0.089,-0.215 0.203,-0.172 0.136,0.047 0.215,0.32 0.238,0.82 z m 0.273,0.676 c 0.157,0.094 -0.058,0.262 -0.648,0.512 -0.273,0.113 -0.43,0.113 -0.477,0 -0.043,-0.137 0.082,-0.274 0.375,-0.407 0.317,-0.183 0.567,-0.214 0.75,-0.105 z m -2.039,0.785 c 0.157,-0.207 0.329,-0.297 0.508,-0.273 0.18,0 0.125,0.148 -0.168,0.441 -0.23,0.227 -0.375,0.309 -0.445,0.238 -0.066,-0.066 -0.031,-0.203 0.105,-0.406 z m -0.171,-0.41 c 0.273,0.07 0.136,0.191 -0.411,0.375 -0.179,0.047 -0.339,0.023 -0.476,-0.066 -0.133,-0.09 -0.102,-0.184 0.105,-0.274 0.246,-0.113 0.508,-0.125 0.782,-0.035 z m -0.036,1.258 c 0.227,-0.203 0.453,-0.477 0.68,-0.817 L 22.41,18.99 c 0.41,-0.067 0.715,-0.168 0.918,-0.305 0.297,-0.207 0.465,-0.578 0.512,-1.121 l 0.137,-0.035 c 0.113,-0.047 0.214,-0.125 0.304,-0.238 0.16,-0.203 0.184,-0.411 0.067,-0.614 l 0.172,0 c 0.136,-0.023 0.292,-0.101 0.476,-0.238 l -0.613,-0.508 c -0.567,-0.523 -2.129,-1.09 -4.692,-1.699 -0.632,-0.137 -1.425,-0.238 -2.379,-0.309 l -0.203,-0.035 c -0.226,-0.019 -0.386,-0.019 -0.476,0 l -2.449,-0.101 0.07,0.035 0.133,0.203 c -0.203,-0.18 -0.578,-0.273 -1.121,-0.273 -0.59,0 -1.02,0.183 -1.293,0.546 l -0.168,0.204 c -0.047,-0.114 -0.203,-0.204 -0.477,-0.27 -0.293,-0.047 -0.59,-0.023 -0.883,0.066 -0.363,0.114 -0.578,0.364 -0.644,0.747 l -0.34,-0.133 c -0.793,-0.137 -1.227,0 -1.293,0.406 l -0.035,0.066 c 0,-0.113 -0.024,-0.203 -0.067,-0.269 -0.089,-0.25 -0.238,-0.41 -0.441,-0.477 0.156,-0.203 0.191,-0.375 0.102,-0.511 -0.047,-0.067 -0.524,0 -1.43,0.207 -0.52,0.089 -0.746,0.316 -0.68,0.679 -0.387,0 -0.769,0.114 -1.156,0.34 -0.363,0.203 -0.352,0.418 0.035,0.645 -0.273,0.183 -0.453,0.398 -0.543,0.648 L 4.188,16.545 C 4.395,16.451 4.609,16.396 4.836,16.373 5.219,16.306 5.379,16.408 5.312,16.677 5.492,16.545 5.426,16.33 5.105,16.033 5.016,15.943 4.902,15.896 4.766,15.896 4.812,15.603 5.004,15.42 5.344,15.353 5.73,15.283 5.926,15.4 5.926,15.693 L 6.059,15.591 C 6.129,15.502 6.16,15.373 6.16,15.216 6.141,15.08 5.992,15.013 5.719,15.013 5.832,14.83 5.992,14.705 6.195,14.638 c 0.024,0 0.239,-0.011 0.645,-0.035 0.117,0 0.219,0.024 0.308,0.07 C 6.945,14.74 6.773,14.877 6.637,15.08 6.5,15.263 6.398,15.498 6.332,15.795 6.242,16.111 6.16,16.326 6.094,16.439 5.98,16.623 5.789,16.826 5.516,17.052 5.199,17.123 4.961,17.259 4.801,17.463 L 4.633,17.732 4.531,17.701 4.086,17.463 C 4.176,17.279 4.121,17.134 3.914,17.017 3.711,16.884 3.336,16.873 2.793,16.986 c -0.52,0.113 -0.805,0.25 -0.852,0.406 -0.019,0.137 -0.007,0.227 0.036,0.274 l 0.101,0.035 c 0.137,-0.25 0.477,-0.375 1.02,-0.375 0.386,0 0.679,0.101 0.882,0.304 0,0.184 -0.031,0.297 -0.101,0.34 l -0.168,0.239 0.269,0.035 c -0.453,0.09 -0.746,0.203 -0.882,0.34 l 1.566,0 c 0.496,0 0.734,0.25 0.711,0.75 0.184,-0.524 0.047,-0.864 -0.406,-1.02 0.066,-0.523 0.351,-0.785 0.851,-0.785 0.407,0 0.633,0.082 0.68,0.238 l -0.172,0.375 0.035,0.238 c 0.203,-0.296 0.43,-0.511 0.68,-0.644 l 0.883,-0.34 c 0.523,-0.183 0.828,-0.058 0.918,0.371 l 0.035,-0.101 c 0.023,-0.09 0.023,-0.203 0,-0.34 0.25,-0.43 0.601,-0.668 1.055,-0.715 0.519,-0.066 0.734,0.125 0.644,0.578 l -0.34,0.34 c -0.179,0.137 -0.316,0.285 -0.406,0.445 -0.094,0.133 -0.059,0.145 0.102,0.031 0.089,-0.066 0.304,-0.25 0.644,-0.542 0.227,-0.184 0.442,-0.329 0.645,-0.442 0.273,-0.16 0.566,-0.219 0.886,-0.172 0.317,0.071 0.453,0.192 0.407,0.375 l -0.102,0.375 c 0.363,-0.316 0.387,-0.625 0.066,-0.918 l -0.168,-0.172 0.34,-0.304 c 0.637,-0.5 1.078,-0.578 1.325,-0.239 l 0.207,0.305 c -0.184,0.16 -0.329,0.309 -0.446,0.442 -0.113,0.136 -0.078,0.136 0.102,0 0.523,-0.317 0.922,-0.52 1.191,-0.61 0.364,-0.113 0.477,-0.035 0.34,0.238 l 0.102,-0.07 c 0,0.094 -0.055,0.227 -0.168,0.41 -0.25,-0.023 -0.543,0.157 -0.883,0.543 -0.117,0.137 -0.262,0.262 -0.445,0.375 l -0.239,0.137 c 0.227,0 0.684,-0.184 1.364,-0.543 0.293,-0.117 0.406,-0.016 0.339,0.305 l 0.032,-0.035 c -0.02,0.16 -0.078,0.316 -0.168,0.476 -0.114,0.16 -0.172,0.274 -0.172,0.34 -0.02,0.09 -0.02,0.137 0,0.137 l 0.035,0.136 c 0.066,0.133 0.078,0.258 0.035,0.375 L 15,19.095 l -0.172,0.274 -0.269,0.269 -0.071,0.137 c -0.023,0.07 0.012,0.172 0.102,0.309 l -0.031,0 c -0.364,-0.227 -0.942,-0.036 -1.735,0.578 0.156,-0.024 0.371,-0.09 0.645,-0.207 0.25,-0.09 0.465,-0.145 0.648,-0.168 0.36,-0.024 0.52,0.113 0.477,0.406 l 0.031,-0.031 c 0.023,0.136 0.102,0.25 0.238,0.34 0.16,0.089 0.317,0.101 0.477,0.031 l 0.441,-0.067 c 0.317,-0.023 0.567,-0.023 0.75,0 0.27,0.067 0.293,0.227 0.067,0.477 l 0.34,-0.34 c 0.089,0.067 0.328,0.113 0.714,0.137 0.387,0.043 0.692,0.043 0.918,0 0.203,-0.047 0.43,-0.207 0.68,-0.477 0.137,-0.16 0.316,-0.386 0.543,-0.679 l 0,0.066 c 0.047,0.066 0.137,0.113 0.273,0.137 0.34,0.062 0.704,-0.059 1.086,-0.379 z"
             style="fill:#c4c4af;fill-rule:evenodd"
             id="path236" /><path
             inkscape:connector-curvature="0"
             d="m 16.973,19.908 c 0.859,-0.61 0.972,-0.973 0.339,-1.086 -0.66,-0.113 -1.167,0.031 -1.531,0.441 -0.293,0.34 -0.261,0.602 0.102,0.782 0.34,0.183 0.703,0.136 1.09,-0.137 z"
             style="fill:#fffff5;fill-rule:evenodd"
             id="path238" /><path
             inkscape:connector-curvature="0"
             d="m 18.434,18.548 c 0.953,-0.316 1.007,-0.566 0.168,-0.746 -0.883,-0.183 -1.461,-0.105 -1.731,0.239 -0.25,0.269 -0.183,0.461 0.203,0.578 0.383,0.113 0.836,0.09 1.36,-0.071 z"
             style="fill:#fffff5;fill-rule:evenodd"
             id="path240" /><path
             inkscape:connector-curvature="0"
             d="m 18.398,17.259 c 0.977,-0.386 1.067,-0.625 0.274,-0.714 -0.84,-0.071 -1.371,0.054 -1.598,0.371 -0.226,0.297 -0.183,0.476 0.137,0.547 0.293,0.066 0.691,0 1.187,-0.204 z"
             style="fill:#fffff5;fill-rule:evenodd"
             id="path242" /><path
             inkscape:connector-curvature="0"
             d="m 15.883,17.599 c 0.883,-0.476 1.324,-0.918 1.324,-1.328 0,-0.387 -0.281,-0.5 -0.848,-0.34 -0.453,0.137 -0.738,0.5 -0.851,1.086 -0.09,0.567 0.035,0.762 0.375,0.582 z"
             style="fill:#fffff5;fill-rule:evenodd"
             id="path244" /><path
             inkscape:connector-curvature="0"
             d="m 21.461,17.701 c 0.906,-0.387 1.223,-0.715 0.949,-0.988 -0.273,-0.293 -0.715,-0.27 -1.324,0.07 -0.524,0.293 -0.691,0.566 -0.512,0.816 0.184,0.227 0.477,0.258 0.887,0.102 z"
             style="fill:#fffff5;fill-rule:evenodd"
             id="path246" /><path
             inkscape:connector-curvature="0"
             d="m 20.949,19.127 c 0.793,-0.18 0.93,-0.375 0.41,-0.579 -0.57,-0.179 -1.047,-0.168 -1.429,0.036 -0.34,0.179 -0.34,0.339 0,0.476 0.316,0.137 0.656,0.156 1.019,0.067 z"
             style="fill:#fffff5;fill-rule:evenodd"
             id="path248" /><path
             inkscape:connector-curvature="0"
             d="m 21.391,19.603 c 0.41,-0.25 0.636,-0.531 0.679,-0.851 0.047,-0.293 -0.066,-0.407 -0.34,-0.34 -0.25,0.07 -0.418,0.32 -0.507,0.75 -0.094,0.429 -0.035,0.578 0.168,0.441 z"
             style="fill:#fffff5;fill-rule:evenodd"
             id="path250" /><path
             inkscape:connector-curvature="0"
             d="m 18.977,15.556 c 0.589,-0.316 0.589,-0.644 0,-0.984 -0.543,-0.34 -1.079,-0.465 -1.598,-0.375 -0.453,0.07 -0.399,0.375 0.168,0.918 0.566,0.523 1.047,0.668 1.43,0.441 z"
             style="fill:#fffff5;fill-rule:evenodd"
             id="path252" /><path
             inkscape:connector-curvature="0"
             d="m 16.055,15.353 c 0.812,-0.476 0.906,-0.828 0.269,-1.055 -0.633,-0.226 -1.222,-0.148 -1.765,0.239 -0.524,0.363 -0.547,0.668 -0.071,0.918 0.453,0.273 0.977,0.238 1.567,-0.102 z"
             style="fill:#fffff5;fill-rule:evenodd"
             id="path254" /><path
             inkscape:connector-curvature="0"
             d="m 21.969,16.103 c 0.816,-0.023 0.976,-0.238 0.476,-0.648 -0.519,-0.43 -0.965,-0.59 -1.324,-0.477 -0.32,0.09 -0.375,0.305 -0.172,0.649 0.203,0.339 0.543,0.496 1.02,0.476 z"
             style="fill:#fffff5;fill-rule:evenodd"
             id="path256" /><path
             inkscape:connector-curvature="0"
             d="m 19.793,20.08 c 0.363,-0.364 0.465,-0.567 0.305,-0.614 -0.36,0.047 -0.68,0.079 -0.95,0.102 -0.363,0.023 -0.613,0.273 -0.75,0.75 -0.136,0.477 -0.054,0.703 0.239,0.68 0.25,-0.024 0.453,-0.114 0.613,-0.274 0.113,-0.113 0.293,-0.328 0.543,-0.644 z"
             style="fill:#fffff5;fill-rule:evenodd"
             id="path258" /><path
             inkscape:connector-curvature="0"
             d="M 31.59,8.283 C 26.875,6.9 22.129,5.56 17.344,4.271 7.824,1.638 2.941,0.505 2.691,0.869 2.645,0.982 2.883,1.15 3.406,1.38 3.676,1.494 3.949,1.595 4.223,1.685 l 26.722,8.297 0.442,0 C 31.703,9.935 31.93,9.779 32.066,9.505 32.293,9.052 32.137,8.642 31.59,8.283 Z"
             style="fill:#73532a;fill-rule:evenodd"
             id="path260" /><path
             inkscape:connector-curvature="0"
             d="m 29.926,9.439 1.324,0.543 c 0.25,0 0.441,-0.066 0.578,-0.203 C 31.285,9.392 30.773,9.166 30.301,9.099 27.828,8.689 26.129,8.384 25.199,8.181 l 1.598,0.508 c 1.769,0.363 2.808,0.613 3.129,0.75 z"
             style="fill:#996c2f;fill-rule:evenodd"
             id="path262" /><path
             inkscape:connector-curvature="0"
             d="M 7.18,2.603 6.977,2.466 C 6,1.697 5.391,1.255 5.141,1.142 L 4.02,0.939 C 3.902,1.029 3.801,1.095 3.711,1.142 3.574,1.189 3.305,1.189 2.895,1.142 l 0.41,0.203 c 0.543,-0.113 1.109,-0.066 1.699,0.137 0.316,0.113 0.566,0.25 0.75,0.41 0.18,0.156 0.34,0.293 0.473,0.406 L 7.18,2.603 Z"
             style="fill:#996c2f;fill-rule:evenodd"
             id="path264" /><path
             inkscape:connector-curvature="0"
             d="m 7.895,2.263 c 0.363,0.274 0.71,0.465 1.05,0.578 0.457,0.161 1.09,0.239 1.907,0.239 0.566,0 1.101,-0.047 1.597,-0.137 L 11.43,2.673 C 10.59,2.716 9.957,2.705 9.527,2.638 8.438,2.478 7.758,2.162 7.484,1.685 L 7.145,1.619 c 0.25,0.25 0.5,0.465 0.75,0.644 z"
             style="fill:#996c2f;fill-rule:evenodd"
             id="path266" /><path
             inkscape:connector-curvature="0"
             d="M 22.648,7.396 C 20.949,6.697 19.781,6.13 19.145,5.697 18.578,5.314 17.617,4.88 16.258,4.404 14.672,3.861 13.332,3.556 12.246,3.49 10.793,3.4 9.754,3.306 9.117,3.216 L 9.832,3.42 c 0.859,0.136 1.621,0.226 2.277,0.273 1.133,0.113 2.278,0.375 3.434,0.781 0.727,0.25 1.836,0.715 3.332,1.395 l 2.141,1.019 1.632,0.508 z"
             style="fill:#996c2f;fill-rule:evenodd"
             id="path268" /><path
             inkscape:connector-curvature="0"
             d="m 3.543,0.869 c -0.5,-0.067 -0.785,-0.067 -0.852,0 l 0.036,0.035 c 0.113,0.113 0.316,0.113 0.609,0 L 3.543,0.869 Z"
             style="fill:#996c2f;fill-rule:evenodd"
             id="path270" /><path
             inkscape:connector-curvature="0"
             d="M 31.863,8.552 31.59,8.283 31.047,8.111 C 28.371,7.974 26.695,7.849 26.016,7.736 25.312,7.646 24.359,7.353 23.16,6.853 21.98,6.353 21.152,5.923 20.676,5.56 L 19.895,4.951 18.059,4.474 c 0.816,0.406 1.586,0.852 2.312,1.324 1.539,0.954 2.934,1.586 4.184,1.907 1.652,0.406 3.25,0.609 4.793,0.609 1.043,0 1.882,0.082 2.515,0.238 z"
             style="fill:#996c2f;fill-rule:evenodd"
             id="path272" /><path
             inkscape:connector-curvature="0"
             d="M 9.73,2.298 9.898,2.263 8.438,1.923 C 8.754,2.24 9.188,2.365 9.73,2.298 Z"
             style="fill:#996c2f;fill-rule:evenodd"
             id="path274" /><path
             inkscape:connector-curvature="0"
             d="m 24.109,6.752 c 1.114,0.203 2.043,0.261 2.789,0.168 L 25.164,6.447 C 24.055,6.537 23.238,6.322 22.715,5.798 L 22.68,5.732 21.594,5.423 c 0.863,0.75 1.703,1.192 2.515,1.329 z"
             style="fill:#996c2f;fill-rule:evenodd"
             id="path276" /><g
             id="g278"><g
               mask="url(#mask286)"
               id="g294"><g
                 id="g306"><g
                   clip-path="url(#clipPath298)"
                   id="g308"><g
                     transform="translate(0,-0.69374)"
                     id="g310"><g
                       id="g314"><g
                         clip-path="url(#clipPath302)"
                         id="g316"><g
                           id="g318"><path
                             inkscape:connector-curvature="0"
                             d="m 13.113,4.82 c 0.723,0.203 2.649,0.805 5.778,1.805 3.105,0.973 5.078,1.609 5.918,1.902 3.648,1.27 5.632,1.789 5.949,1.563 C 30.961,9.957 29.43,9.379 26.168,8.355 23.605,7.543 21.395,6.883 19.539,6.387 16.75,5.59 14.461,4.957 12.668,4.48 9.27,3.527 7.738,3.133 8.078,3.293 c 0.25,0.113 1.93,0.621 5.035,1.527 z"
                             style="fill:#ffd69c;fill-rule:evenodd"
                             id="path320" /></g></g></g></g></g></g></g></g><path
             inkscape:connector-curvature="0"
             d="M 35.23,5.767 C 29.812,4.654 24.383,3.58 18.945,2.537 8.02,0.498 2.453,-0.307 2.25,0.123 2.184,0.259 2.453,0.427 3.066,0.63 3.383,0.72 3.699,0.814 4.02,0.904 L 34.652,7.806 35.16,7.771 C 35.5,7.681 35.738,7.466 35.875,7.127 36.102,6.58 35.887,6.13 35.23,5.767 Z"
             style="fill:#73532a;fill-rule:evenodd"
             id="path322" /><path
             inkscape:connector-curvature="0"
             d="M 33.867,6.853 C 31.285,6.673 29.359,6.502 28.09,6.341 l 1.801,0.411 c 2.015,0.226 3.218,0.41 3.605,0.543 0.43,0.16 0.942,0.328 1.527,0.511 0.25,-0.047 0.454,-0.148 0.614,-0.304 C 35.07,7.138 34.48,6.92 33.867,6.853 Z"
             style="fill:#996c2f;fill-rule:evenodd"
             id="path324" /><path
             inkscape:connector-curvature="0"
             d="M 7.383,1.685 7.18,1.548 C 6.09,0.802 5.367,0.349 5.004,0.189 L 3.711,0.052 C 3.598,0.166 3.496,0.259 3.406,0.326 3.223,0.416 2.918,0.439 2.488,0.396 l 0.477,0.203 c 0.609,-0.203 1.246,-0.203 1.902,0 0.363,0.09 0.649,0.203 0.852,0.34 0.226,0.203 0.418,0.363 0.578,0.477 l 1.086,0.269 z"
             style="fill:#996c2f;fill-rule:evenodd"
             id="path326" /><path
             inkscape:connector-curvature="0"
             d="m 8.133,1.209 c 0.453,0.273 0.871,0.464 1.258,0.578 0.543,0.113 1.257,0.136 2.14,0.07 0.657,-0.07 1.258,-0.184 1.801,-0.344 L 12.145,1.31 C 11.234,1.447 10.535,1.505 10.035,1.482 8.789,1.412 7.996,1.107 7.656,0.564 L 7.281,0.498 c 0.293,0.293 0.578,0.531 0.852,0.711 z"
             style="fill:#996c2f;fill-rule:evenodd"
             id="path328" /><path
             inkscape:connector-curvature="0"
             d="m 13.129,2.162 c -1.336,0.066 -2.504,0.066 -3.5,0 l 0.816,0.203 2.547,0.07 c 1.293,0.024 2.598,0.203 3.91,0.543 0.84,0.227 2.133,0.656 3.875,1.293 0.59,0.203 1.418,0.531 2.485,0.984 l 1.871,0.411 C 23.18,5.052 21.832,4.509 21.086,4.033 20.406,3.623 19.285,3.216 17.719,2.806 15.883,2.334 14.352,2.115 13.129,2.162 Z"
             style="fill:#996c2f;fill-rule:evenodd"
             id="path330" /><path
             inkscape:connector-curvature="0"
             d="M 3.168,0.017 C 2.602,-0.026 2.297,0.009 2.25,0.123 l 0,0.031 C 2.387,0.291 2.625,0.271 2.965,0.088 L 3.168,0.017 Z"
             style="fill:#996c2f;fill-rule:evenodd"
             id="path332" /><path
             inkscape:connector-curvature="0"
             d="M 35.57,6.037 35.23,5.767 34.582,5.63 C 31.363,5.744 29.492,5.779 28.973,5.732 28.156,5.685 27.047,5.427 25.641,4.951 24.281,4.498 23.328,4.088 22.785,3.724 L 21.832,3.115 19.758,2.705 c 0.91,0.41 1.804,0.851 2.687,1.328 1.789,0.949 3.41,1.551 4.86,1.801 2.019,0.293 3.82,0.363 5.406,0.203 1.133,-0.09 2.086,-0.09 2.859,0 z"
             style="fill:#996c2f;fill-rule:evenodd"
             id="path334" /><path
             inkscape:connector-curvature="0"
             d="M 10.203,1.076 10.41,1.005 8.742,0.736 c 0.387,0.34 0.875,0.449 1.461,0.34 z"
             style="fill:#996c2f;fill-rule:evenodd"
             id="path336" /><path
             inkscape:connector-curvature="0"
             d="m 28.258,4.845 c 0.453,0 0.988,-0.054 1.597,-0.168 L 27.887,4.302 C 26.66,4.529 25.719,4.361 25.062,3.795 L 25.027,3.724 23.805,3.486 c 1.043,0.75 2.007,1.168 2.89,1.258 0.77,0.07 1.293,0.101 1.563,0.101 z"
             style="fill:#996c2f;fill-rule:evenodd"
             id="path338" /><g
             id="g340"><g
               mask="url(#mask348)"
               id="g356"><g
                 id="g368"><g
                   clip-path="url(#clipPath360)"
                   id="g370"><g
                     transform="translate(0,-0.69374)"
                     id="g372"><g
                       id="g376"><g
                         clip-path="url(#clipPath364)"
                         id="g378"><g
                           id="g380"><path
                             inkscape:connector-curvature="0"
                             d="m 14.215,3.504 c 0.883,0.184 3.082,0.68 6.594,1.496 3.629,0.84 5.894,1.383 6.8,1.633 4.239,1.066 6.516,1.461 6.836,1.191 C 34.648,7.641 32.879,7.121 29.141,6.258 26.102,5.559 23.562,5.023 21.523,4.66 18.328,4.027 15.711,3.516 13.668,3.133 9.793,2.383 8.047,2.09 8.434,2.246 c 0.5,0.184 2.425,0.602 5.781,1.258 z"
                             style="fill:#ffd69c;fill-rule:evenodd"
                             id="path382" /></g></g></g></g></g></g></g></g></g><g
           id="g384"><g
             clip-path="url(#clipPath388)"
             id="g386"><g
               clip-path="url(#clipPath394)"
               id="g392"><g
                 transform="translate(0,-0.69374)"
                 id="g398"><g
                   id="g406"><g
                     clip-path="url(#clipPath402)"
                     id="g408"><g
                       id="g410"><path
                         inkscape:connector-curvature="0"
                         d="m 21.957,16.309 -0.875,-0.2 c -0.59,0.118 -0.937,0.176 -1.043,0.172 -0.449,-0.144 -0.715,-0.219 -0.793,-0.219 -0.723,-0.019 -1.844,0.02 -3.367,0.114 l -2.043,0.187 C 13.516,16.355 13.332,16.285 13.281,16.152 13.23,16.043 13.109,15.984 12.926,15.98 l -1.727,0.2 -1.242,-0.032 C 9.871,16.074 9.746,16.031 9.582,16.016 9.418,15.996 9.238,16.004 9.043,16.043 8.559,16.109 8.211,16.141 8,16.137 L 7.859,16.133 C 7.801,16.145 7.738,16.148 7.68,16.148 7.355,16.172 7.098,16.25 6.91,16.391 6.668,16.598 6.332,16.695 5.902,16.684 5.664,16.68 5.547,16.637 5.547,16.555 L 5.594,16.316 C 5.027,16.543 4.582,16.676 4.262,16.723 4.137,16.754 3.969,16.852 3.754,17.012 3.895,17 4.035,16.996 4.176,17 c 1.148,0.031 2.187,-0.09 3.129,-0.359 0.941,-0.27 1.625,-0.399 2.05,-0.391 0.133,0.004 0.415,0.066 0.836,0.184 0.371,0.113 0.637,0.16 0.797,0.14 0.114,-0.019 0.231,-0.015 0.34,0.008 L 12.832,16.5 c 0.16,0.004 0.422,0.105 0.793,0.301 l 1.723,-0.137 0.058,0 1.227,-0.109 c 0.289,0.035 0.703,-0.008 1.242,-0.129 0.563,-0.117 1.02,-0.172 1.363,-0.164 0.106,0.004 0.692,0.082 1.754,0.246 l 0.043,0 c 0.078,0 0.199,0.043 0.356,0.129 0.16,0.058 0.316,0.086 0.476,0.09 l 1.004,-0.032 c 0.102,0.043 0.199,0.078 0.297,0.106 -0.012,-0.043 -0.02,-0.098 -0.016,-0.16 l 0.66,0.015 c -0.41,-0.117 -0.8,-0.179 -1.175,-0.187 l -0.282,0.011 -0.019,0 c -0.133,-0.062 -0.258,-0.117 -0.379,-0.171 z"
                         style="fill:#c4c4af;fill-rule:evenodd"
                         id="path412" /></g></g></g></g></g></g></g><path
           inkscape:connector-curvature="0"
           d="m 12.766,16.771 c 0.046,0.02 0.101,0.027 0.16,0.02 0.238,-0.028 0.441,-0.121 0.601,-0.282 0.106,-0.105 0.293,-0.316 0.559,-0.64 0.074,-0.074 0.133,-0.141 0.18,-0.199 -1,0.039 -1.5,0.371 -1.5,1 l 0,0.101 z m 0.339,-1.301 c 0.204,-0.05 0.383,-0.078 0.54,-0.078 0.187,0 0.347,0.024 0.48,0.078 0.047,0.024 0.113,0.071 0.199,0.141 0.141,-0.188 0.153,-0.301 0.043,-0.34 -0.347,0.055 -0.656,0.082 -0.922,0.082 -0.129,0.008 -0.242,0.047 -0.34,0.117 z"
           style="fill:#fffff5;fill-rule:evenodd"
           id="path500" /><path
           inkscape:connector-curvature="0"
           d="m 13.105,15.47 c -0.191,0.118 -0.332,0.328 -0.417,0.641 -0.11,0.383 -0.083,0.602 0.078,0.66 l 0,-0.101 c 0,-0.629 0.5,-0.961 1.5,-1 0.023,-0.02 0.043,-0.04 0.058,-0.059 -0.086,-0.07 -0.152,-0.117 -0.199,-0.141 -0.133,-0.05 -0.293,-0.078 -0.48,-0.078 -0.157,0 -0.336,0.024 -0.54,0.078 z"
           style="fill:#c4c4af;fill-rule:evenodd"
           id="path502" /></g></g></g><metadata
     id="metadata227"><rdf:RDF><cc:Work><dc:format>image/svg+xml</dc:format><dc:type
           rdf:resource="http://purl.org/dc/dcmitype/StillImage" /><cc:license
           rdf:resource="http://creativecommons.org/publicdomain/zero/1.0/" /><dc:publisher><cc:Agent
             rdf:about="http://openclipart.org/"><dc:title>Openclipart</dc:title></cc:Agent></dc:publisher><dc:title></dc:title></cc:Work><cc:License
         rdf:about="http://creativecommons.org/publicdomain/zero/1.0/"><cc:permits
           rdf:resource="http://creativecommons.org/ns#Reproduction" /><cc:permits
           rdf:resource="http://creativecommons.org/ns#Distribution" /><cc:permits
           rdf:resource="http://creativecommons.org/ns#DerivativeWorks" /></cc:License></rdf:RDF></metadata></svg>