<?xml version="1.0" encoding="iso-8859-1"?>
<!-- Uploaded to: SVG Repo, www.svgrepo.com, Generator: SVG Repo Mixer Tools -->
<svg height="800px" width="800px" version="1.1" id="Layer_1" xmlns="http://www.w3.org/2000/svg" xmlns:xlink="http://www.w3.org/1999/xlink" 
	 viewBox="0 0 511.985 511.985" xml:space="preserve">
<path style="fill:#E6E9ED;" d="M351.993,202.65c0-53.014-42.968-95.997-95.989-95.997c-53.03,0-95.997,42.983-95.997,95.997
	l-42.671,287.991c0,0,39.296,21.343,138.668,21.343c99.364,0,138.645-21.343,138.645-21.343L351.993,202.65z"/>
<path style="fill:#F5F7FA;" d="M383.023,412.128l-127.02-68.826L128.96,412.128l-11.625,78.514c0,0,39.296,21.343,138.668,21.343
	c99.364,0,138.645-21.343,138.645-21.343L383.023,412.128z"/>
<polygon style="fill:#FFCE54;" points="224.005,341.317 287.745,341.317 287.745,0 224.005,42.655 "/>
<path style="fill:#ED5564;" d="M160.007,202.65h191.986c0-53.014-42.968-95.997-95.989-95.997
	C202.973,106.653,160.007,149.636,160.007,202.65z"/>
<g>
	<path style="fill:#E6E9ED;" d="M248.332,387.441c-4.172,4.156-4.172,10.922,0,15.078c4.156,4.172,10.922,4.172,15.078,0
		c4.172-4.156,4.172-10.922,0-15.078C259.254,383.269,252.488,383.269,248.332,387.441z"/>
	<path style="fill:#E6E9ED;" d="M305.431,402.519c4.156-4.156,4.156-10.922,0-15.078c-4.156-4.172-10.905-4.172-15.093,0
		c-4.156,4.156-4.156,10.922,0,15.078C294.526,406.691,301.275,406.691,305.431,402.519z"/>
	<path style="fill:#E6E9ED;" d="M205.786,387.441c-4.172,4.156-4.172,10.922,0,15.078c4.172,4.172,10.922,4.172,15.094,0
		c4.156-4.156,4.156-10.922,0-15.078C216.708,383.269,209.958,383.269,205.786,387.441z"/>
	<path style="fill:#E6E9ED;" d="M269.66,429.768c-4.172,4.172-4.172,10.921,0,15.093c4.18,4.156,10.929,4.156,15.085,0
		c4.156-4.172,4.156-10.921,0-15.093C280.589,425.612,273.84,425.612,269.66,429.768z"/>
	<path style="fill:#E6E9ED;" d="M312.463,429.768c-4.188,4.172-4.188,10.921,0,15.093c4.156,4.156,10.906,4.156,15.062,0
		c4.188-4.172,4.188-10.921,0-15.093C323.369,425.612,316.619,425.612,312.463,429.768z"/>
	<path style="fill:#E6E9ED;" d="M370.336,429.768c-4.188-4.156-10.937-4.156-15.093,0c-4.156,4.172-4.156,10.921,0,15.093
		c4.156,4.156,10.905,4.156,15.093,0C374.492,440.689,374.492,433.94,370.336,429.768z"/>
	<path style="fill:#E6E9ED;" d="M242.207,429.768c-4.172-4.156-10.921-4.156-15.093,0c-4.156,4.172-4.156,10.921,0,15.093
		c4.172,4.156,10.921,4.156,15.093,0C246.363,440.689,246.363,433.94,242.207,429.768z"/>
	<path style="fill:#E6E9ED;" d="M199.537,429.768c-4.156-4.156-10.922-4.156-15.078,0c-4.172,4.172-4.172,10.921,0,15.093
		c4.156,4.156,10.922,4.156,15.078,0C203.708,440.689,203.708,433.94,199.537,429.768z"/>
	<path style="fill:#E6E9ED;" d="M156.882,429.768c-4.172-4.156-10.922-4.156-15.094,0c-4.156,4.172-4.156,10.921,0,15.093
		c4.172,4.156,10.922,4.156,15.094,0C161.038,440.689,161.038,433.94,156.882,429.768z"/>
	<path style="fill:#E6E9ED;" d="M248.269,472.438c-4.172,4.156-4.172,10.922,0,15.078c4.156,4.172,10.922,4.172,15.078,0
		c4.172-4.156,4.172-10.922,0-15.078C259.191,468.267,252.426,468.267,248.269,472.438z"/>
	<path style="fill:#E6E9ED;" d="M291.057,472.438c-4.156,4.156-4.156,10.922,0,15.078c4.156,4.172,10.905,4.172,15.093,0
		c4.156-4.156,4.156-10.922,0-15.078C301.963,468.267,295.214,468.267,291.057,472.438z"/>
	<path style="fill:#E6E9ED;" d="M333.838,472.438c-4.156,4.156-4.156,10.922,0,15.078c4.188,4.172,10.937,4.172,15.093,0
		c4.156-4.156,4.156-10.922,0-15.078C344.774,468.267,338.025,468.267,333.838,472.438z"/>
	<path style="fill:#E6E9ED;" d="M205.723,472.438c-4.156,4.156-4.156,10.922,0,15.078c4.172,4.172,10.922,4.172,15.094,0
		c4.156-4.156,4.156-10.922,0-15.078C216.645,468.267,209.895,468.267,205.723,472.438z"/>
	<path style="fill:#E6E9ED;" d="M163.054,472.438c-4.156,4.156-4.156,10.922,0,15.078c4.172,4.172,10.921,4.172,15.093,0
		c4.156-4.156,4.156-10.922,0-15.078C173.974,468.267,167.225,468.267,163.054,472.438z"/>
</g>
<path style="fill:#DA4453;" d="M263.535,146.777c-2.109-2.109-4.891-3.156-7.672-3.109v-0.016
	c-33.546,0.062-61.107,26.077-63.67,58.998h21.437c2.484-21.14,20.468-37.593,42.233-37.655v-0.016c2.781,0.031,5.562-1,7.672-3.109
	C267.707,157.698,267.707,150.949,263.535,146.777z"/>
</svg>