<svg xmlns="http://www.w3.org/2000/svg" xml:space="preserve" width="3.52098in" height="8.06168in" shape-rendering="geometricPrecision" text-rendering="geometricPrecision" image-rendering="optimizeQuality" fill-rule="evenodd" clip-rule="evenodd"
viewBox="0 0 0.892424 2.04331"
 xmlns:xlink="http://www.w3.org/1999/xlink">
 <g id="Layer_x0020_1">
  <metadata id="CorelCorpID_0Corel-Layer"/>
  <path fill="#DEDEDD" d="M0.794752 0.0598503c0.0809782,0.31285 0.112522,0.527206 0.0699108,0.650171 -0.049196,0.141968 -0.177256,0.215868 -0.276148,0.318094 -0.0850834,0.0879513 -0.088084,0.201617 -0.0908841,0.297121 -0.00474687,0.161888 -0.00867648,0.349501 0,0.511226 0.0029986,0.0559037 0.126958,0.0666627 0.286634,0.107485 0.0456985,0.0116821 0.0442635,0.0302973 0,0.0419465 -0.210458,0.0553898 -0.465649,0.0553898 -0.676107,0 -0.0442635,-0.0116491 -0.0456985,-0.0302644 0,-0.0419465 0.159676,-0.0408219 0.283636,-0.0515809 0.286634,-0.107485 0.00867648,-0.161725 0.00474687,-0.349339 0,-0.511226 -0.00280002,-0.0955042 -0.00580062,-0.20917 -0.0908841,-0.297121 -0.098892,-0.102226 -0.226952,-0.176126 -0.276148,-0.318094 -0.0426111,-0.122965 -0.0110674,-0.33732 0.0699108,-0.650171 0.155156,-0.0590121 0.541925,-0.0590121 0.69708,0z"/>
  <path fill="#671F13" d="M0.0196421 0.508382c-0.00541844,0.0793417 -0.00049195,0.143183 0.016404,0.191942 0.0345393,0.0996713 0.109676,0.165774 0.185471,0.232457 0.0298164,0.026231 0.0597345,0.0525539 0.0880252,0.0817276 0.000197578,0.000165647 0.000391165,0.00034227 0.000576769,0.000527874l1.19744e-005 1.19744e-005 -3.29297e-005 3.29297e-005 8.68147e-005 8.98084e-005 2.99361e-006 2.99361e-006 1.19744e-005 1.19744e-005c0.0149471,0.015451 0.0274255,0.0316335 0.0378622,0.0483329 0.0636811,0.0213385 0.131565,0.0207607 0.196208,0.000133715 0.0104537,-0.0167473 0.022966,-0.0329736 0.037953,-0.0484666 0.0284842,-0.0294442 0.0586359,-0.0559716 0.0886828,-0.0824052 0.0757963,-0.0666817 0.150932,-0.132785 0.185471,-0.232457 0.016883,-0.048723 0.0218144,-0.112504 0.016416,-0.191762 0.00562599,-0.00493547 0.00859266,-0.0100376 0.00859266,-0.0152654 0,-0.0424644 -0.194828,-0.0769019 -0.435071,-0.0769019 -0.240242,0 -0.435071,0.0344375 -0.435071,0.0769019 0,0.00516398 0.0029038,0.0102062 0.00839708,0.0150848z"/>
  <path fill="#BB4234" d="M0.446316 0.416395c0.240242,0 0.435071,0.0344375 0.435071,0.0769019 0,0.0424644 -0.194828,0.0769019 -0.435071,0.0769019 -0.240242,0 -0.435071,-0.0344375 -0.435071,-0.0769019 0,-0.0424644 0.194828,-0.0769019 0.435071,-0.0769019z"/>
  <path fill="none" d="M0.793104 0.0805411c0.00266332,0.00242882 0.00404437,0.00491751 0.00404437,0.00744811 0,0.0270084 -0.157153,0.0489106 -0.350936,0.0489106 -0.193783,0 -0.350936,-0.0219023 -0.350936,-0.0489106 0,-0.00231905 0.00116052,-0.00460417 0.00340573,-0.0068394"/>
  <path fill="#969594" fill-rule="nonzero" d="M0.803382 0.0513444c0.0405305,0.156638 0.0686964,0.288661 0.0814043,0.396958 0.0128286,0.109316 0.00993181,0.194904 -0.0118377,0.257728 -0.036105,0.10419 -0.112926,0.171774 -0.190423,0.239953 -0.0301616,0.0265344 -0.060428,0.0531626 -0.0877188,0.0813734 -0.0823682,0.0851443 -0.0856303,0.196417 -0.0883754,0.290133l-3.39276e-005 0.00114356c-0.00237294,0.0809702 -0.0045443,0.168328 -0.00503326,0.255468 -0.000489954,0.0870941 0.000697512,0.174243 0.00503326,0.255071 0.00193886,0.0361399 0.0724694,0.0518863 0.174456,0.0746517 0.0329377,0.00735231 0.0689908,0.0154001 0.105578,0.0247542 0.0163631,0.00418208 0.0275632,0.00948476 0.0336711,0.0152934 0.00594332,0.00565094 0.00530668,0.0103439 0.0089968,0.0172302 0.00254557,0.00336981 0.00380388,0.00699607 0.00378792,0.0108149 -2.09553e-005,0.00506619 -0.00229011,0.00978113 -0.00676357,0.0140071 -0.00625066,0.0059054 -0.0177182,0.0113029 -0.0341471,0.0155578l-2.49468e-005 5.98722e-006c-0.0300449,0.00778239 -0.0611066,0.0144981 -0.0929207,0.020143 -0.0318131,0.00564495 -0.0641321,0.0101763 -0.0966986,0.013595 -0.16816,0.0176513 -0.346799,0.00640334 -0.501772,-0.033744 -0.0164279,-0.00425492 -0.0278955,-0.0096524 -0.0341461,-0.0155578 -0.00447445,-0.00422598 -0.00674361,-0.00893992 -0.00676456,-0.0140071 -2.19532e-005,-0.00533561 0.0094678,-0.0249967 0.012673,-0.0280452 0.00610896,-0.0058086 0.0173081,-0.0111103 0.0336711,-0.0152934l0.000320316 -7.58382e-005 -1.99574e-006 -5.98722e-006c0.0364642,-0.00931512 0.0724105,-0.01734 0.105259,-0.0246724 0.101986,-0.0227644 0.172517,-0.0385108 0.174456,-0.0746517 0.00433675,-0.0808285 0.00552321,-0.167978 0.00503426,-0.255071 -0.000489954,-0.08714 -0.00266032,-0.174498 -0.00503426,-0.255468l-3.39276e-005 -0.00114356c-0.00274414,-0.0936781 -0.00600618,-0.204897 -0.0882746,-0.290027l-3.19319e-005 3.19319e-005 -1.19744e-005 -1.19744e-005c-0.000251463,-0.000251463 -0.000486961,-0.000517895 -0.000701503,-0.000790314 -0.0271221,-0.0279643 -0.057149,-0.054382 -0.0870742,-0.0807088 -0.0774956,-0.0681775 -0.154318,-0.135764 -0.190423,-0.239953 -0.0217695,-0.0628239 -0.0246664,-0.148412 -0.0118377,-0.257728 0.0127228,-0.108421 0.0409386,-0.240621 0.081543,-0.397496 0.000744411,-0.00287487 0.00283196,-0.00504324 0.00541644,-0.00601217l-3.99148e-006 -9.97871e-006c0.0221078,-0.00840706 0.0488388,-0.0156386 0.0788926,-0.0216917 0.0298902,-0.00601916 0.0629666,-0.0108578 0.097952,-0.014511 0.18006,-0.0188069 0.413577,-0.00671866 0.526443,0.0362087 0.00294971,0.0011226 0.00494046,0.00366817 0.00550126,0.00655401zm-0.692989 1.91921c0.150498,0.0396095 0.324088,0.0506958 0.487581,0.033261 0.0319179,-0.00340374 0.0633179,-0.00786721 0.0939455,-0.0133874 0.0306256,-0.00552022 0.0607374,-0.0121441 0.0900898,-0.0198676l2.2951e-005 -5.98722e-006c0.00883914,-0.00232504 0.0161386,-0.00497937 0.0211419,-0.00781832 0.00713078,-0.00404936 0.00756885,-0.00523383 0.000387174,-0.0093251 -0.00471993,-0.00269026 -0.0118477,-0.00532963 -0.0214602,-0.00778638 -0.0382713,-0.00978412 -0.0731579,-0.0175725 -0.105029,-0.0246863 -0.109694,-0.0244857 -0.185554,-0.0414206 -0.188206,-0.0908771 -0.00433874,-0.0808944 -0.00552621,-0.168419 -0.00503326,-0.256033 0.00049195,-0.0875691 0.00266132,-0.174964 0.00503326,-0.255881l3.39276e-005 -0.00114356c0.00283595,-0.0968154 0.00620676,-0.211767 0.0933248,-0.301822 0.0284842,-0.0294442 0.0586359,-0.0559716 0.0886828,-0.0824052 0.0757963,-0.0666817 0.150932,-0.132785 0.185471,-0.232457 0.0208395,-0.0601397 0.0234779,-0.143215 0.0109436,-0.250028 -0.0125193,-0.10668 -0.0401563,-0.23661 -0.0799095,-0.390628 -0.112089,-0.040773 -0.338573,-0.0519641 -0.514186,-0.0336213 -0.0346032,0.00361329 -0.0671307,0.00836116 -0.0963015,0.0142356 -0.0271141,0.00546135 -0.0514253,0.0119176 -0.0719086,0.0193627 -0.0397552,0.154028 -0.0673942,0.283966 -0.0799135,0.390651 -0.0125343,0.106813 -0.00989588,0.189889 0.0109436,0.250028 0.0345393,0.0996713 0.109676,0.165774 0.185471,0.232457 0.0298164,0.026231 0.0597345,0.0525539 0.0880252,0.0817276 0.000197578,0.000165647 0.000391165,0.00034227 0.000576769,0.000527874l1.19744e-005 1.19744e-005 -3.29297e-005 3.29297e-005 8.68147e-005 8.98084e-005 1.49681e-005 1.49681e-005c0.0871181,0.0900548 0.0904889,0.205007 0.0933248,0.301822l3.39276e-005 0.00114356c0.00237294,0.0809173 0.00454131,0.168312 0.00503426,0.255881 0.00049195,0.087613 -0.000694518,0.175137 -0.00503426,0.256033 -0.00265234,0.0494555 -0.0785125,0.0663923 -0.188206,0.0908771 -0.00847192,0.00189096 -0.104711,0.0246045 -0.104713,0.0245975l-0.000316325 8.88105e-005c-0.00856672,0.00218933 -0.0151616,0.00452435 -0.0198357,0.00691125 -0.0074511,0.00380288 -0.00920436,0.0055761 -0.0015447,0.0100306 0.00500532,0.00291079 0.0123955,0.00560604 0.0214492,0.00798795zm0.199793 -0.955387l2.99361e-006 2.99361e-006"/>
  <path fill="white" fill-opacity="0.501961" d="M0.714522 0.182194c0.215813,0.349422 0.107012,0.582747 -0.0821387,0.688622 0.138264,-0.156728 0.173022,-0.420048 0.0821387,-0.688622z"/>
  <line fill="none" fill-rule="nonzero" x1="0.310185" y1="1.04559" x2="0.310188" y2= "1.04559" />
  <path fill="#AAA9A9" d="M0.652405 1.93032c0.0406293,0.00562799 0.0873217,0.0125462 0.0873217,0.0251104 0,0.0125642 -0.206219,0.0465177 -0.379889,0.0307344 0.163989,-0.00839608 0.307562,-0.0283236 0.292568,-0.0558448z"/>
  <path fill="#969594" fill-rule="nonzero" d="M0.797833 0.0457164l1.19744e-005 1.09766e-005c0.000600718,0.000549827 0.00108269,0.00101384 0.00142596,0.00138006 0.000506918,0.000539848 0.000942988,0.00104078 0.00130222,0.00149681 0.00238691,0.00304051 0.00361529,0.00628758 0.00361529,0.00973024l0 6.98509e-006 -2.79404e-005 0c-1.79617e-005,0.0175775 -0.0416182,0.0321644 -0.10885,0.0415344 -0.06373,0.00888205 -0.151767,0.0143783 -0.248994,0.0143823l0 2.79404e-005 -0.000105774 0 -5.28871e-005 0 0 -2.79404e-005c-0.0972575,-1.99574e-006 -0.185321,-0.00550026 -0.249065,-0.0143843 -0.0672176,-0.00936901 -0.108809,-0.0239539 -0.108832,-0.0415304l-2.79404e-005 0 0 -8.98084e-006 0 -1.19744e-005 2.79404e-005 0c2.99361e-006,-0.00226916 0.000546833,-0.00446647 0.00160657,-0.00658096 0.000285391,-0.000570782 0.000449042,-0.000890101 0.000493946,-0.000967934 9.47977e-005,-0.000162653 0.000194585,-0.000317323 0.000300359,-0.000469997 0.000819252,-0.00130422 0.00184506,-0.00256852 0.00306745,-0.00378592l0.000977913 0.0009839c0.00172632,-0.000439063 0.00362027,-0.000227514 0.00527973,0.000741418 0.00278506,0.00162553 0.00403639,0.0048726 0.00326304,0.00784725l0.000380189 0.000382184c-0.000407131,0.000406133 -0.000735431,0.000789316 -0.000971926,0.00114256l-0.0001407 0.000253459c-0.00016864,0.000289382 -8.98084e-006,-5.58808e-005 -0.000108768,0.000143693 -7.98296e-005,0.000159659 -0.00012174,0.000267429 -0.00012174,0.000310338l2.79404e-005 0 0 1.19744e-005 0 8.98084e-006 -2.79404e-005 0c1.19744e-005,0.0094209 0.0369791,0.0192858 0.0967316,0.0276141 0.063258,0.00881718 0.150641,0.0142735 0.247139,0.0142745l0 -2.79404e-005 5.28871e-005 0 0.000105774 0 0 2.79404e-005c0.0964681,-2.99361e-006 0.183824,-0.00545735 0.247068,-0.0142725 0.0597645,-0.00832923 0.0967406,-0.0181952 0.0967495,-0.0276181l-2.79404e-005 0 0 -6.98509e-006c0,-0.000192589 -0.000200572,-0.000542842 -0.000589742,-0.00103878 -0.00018261,-0.000231506 -0.00034227,-0.000421101 -0.000475984,-0.000562799 -0.000297365,-0.000316325 -0.000514901,-0.000536854 -0.000655601,-0.00066558l-1.19744e-005 -1.09766e-005 0.00945981 -0.0103399z"/>
 </g>
</svg>
