<svg xmlns="http://www.w3.org/2000/svg" data-name="Layer 2" viewBox="0 0 64 64"><path d="M45,55H20a.99974.99974,0,0,1-1-1V16a.99974.99974,0,0,1,1-1H45a4.00427,4.00427,0,0,1,4,4V51A4.00427,4.00427,0,0,1,45,55ZM21,53H45a2.00229,2.00229,0,0,0,2-2V19a2.00229,2.00229,0,0,0-2-2H21Z"/><path d="M15 17.00049a1.00045 1.00045 0 01-.34961-1.9375L29.65918 9.46A4.0002 4.0002 0 0135 13.22852V16a1 1 0 01-2 0V13.22852a2.00053 2.00053 0 00-2.66113-1.8877L15.34961 16.937A.99909.99909 0 0115 17.00049zM17 28H11.5a3.52209 3.52209 0 01-2.47754-1.02344A3.50308 3.50308 0 0111.5 21H14a1 1 0 010 2H11.5a1.5 1.5 0 100 3H17a1 1 0 010 2zM17 38H11.5a3.52209 3.52209 0 01-2.47754-1.02344A3.50308 3.50308 0 0111.5 31H14a1 1 0 010 2H11.5a1.5 1.5 0 100 3H17a1 1 0 010 2zM17 48H11.5a3.52209 3.52209 0 01-2.47754-1.02344A3.50308 3.50308 0 0111.5 41H14a1 1 0 010 2H11.5a1.5 1.5 0 100 3H17a1 1 0 010 2zM42 34H26a.99974.99974 0 01-1-1V31a9 9 0 0118 0v2A.99974.99974 0 0142 34zM27 32H41V31a7 7 0 00-14 0z"/><path d="M44 34H24a1 1 0 010-2H44a1 1 0 010 2zM42 48H26a.99974.99974 0 01-1-1V42a.99974.99974 0 011-1H42a.99974.99974 0 011 1v5A.99974.99974 0 0142 48zM27 46H41V43H27zM20 55H15a3.00328 3.00328 0 01-3-3V18a3.00328 3.00328 0 013-3h5a.99974.99974 0 011 1V54A.99974.99974 0 0120 55zM15 17a1.001 1.001 0 00-1 1V52a1.001 1.001 0 001 1h4V17zM34 24a.99974.99974 0 01-1-1V21a1 1 0 012 0v2A.99974.99974 0 0134 24z"/></svg>