<?xml version="1.0" encoding="UTF-8"?>
<svg id="Layer_1" data-name="Layer 1" xmlns="http://www.w3.org/2000/svg" viewBox="0 0 1786 768">
  <defs>
    <style>
      .cls-1 {
        fill: #802323;
      }

      .cls-2 {
        fill: #ff4546;
      }

      .cls-3 {
        fill: #1f1c1c;
      }
    </style>
  </defs>
  <path class="cls-3" d="M1541.68,748.77h-150.89V335.59c0-11.39,.16-25.47,.48-42.25,.33-16.77,.81-34.02,1.47-51.77s1.3-33.78,1.95-48.11c-3.58,4.23-10.81,11.48-21.72,21.73-10.91,10.27-21.08,19.47-30.52,27.61l-82.03,65.95-72.77-90.83,229.98-183.17h124.03V748.77Z"/>
  <path class="cls-3" d="M590.26,600.44h-85.94v148h-147.45v-148H52.18v-104.98L365.17,34.44h139.16V483.26h85.94v117.19Zm-233.39-117.19v-121.12c0-11.39,.23-24.91,.73-40.53,.48-15.62,1.05-31.27,1.7-46.89s1.39-29.55,2.2-41.77c.81-12.2,1.38-20.75,1.7-25.64h-3.91c-6.19,13.36-12.7,26.3-19.53,38.83-6.84,12.53-14.81,25.64-23.92,39.31l-130.86,197.81h171.88Z"/>
  <path class="cls-2" d="M1154.31,310.59h0c0,13.73-12.53,24.86-27.99,24.86h-467.09c-15.46,0-27.99-11.13-27.99-24.86h0c0-13.73,12.53-24.86,27.99-24.86h467.09c15.46,0,27.99,11.13,27.99,24.86Z"/>
  <path class="cls-2" d="M1130.35,272.56h-473.1c-9.7,0-18.57-4.93-24.28-12.78-7.48-10.3-2.56-250.99,260.41-250.99,258,0,267.9,242.34,260.46,252.21-5.54,7.35-14.3,11.56-23.5,11.56Z"/>
  <path class="cls-2" d="M655.75,495.44h473.1c9.7,0,18.57,4.93,24.28,12.78,7.48,10.3,2.56,250.99-260.41,250.99-258,0-267.9-242.34-260.46-252.21,5.54-7.35,14.3-11.56,23.5-11.56Z"/>
  <path class="cls-1" d="M1138.43,346.44h-4.27c-32.03,0-63.74,7.23-92.28,21.78-29.69,15.14-53,36.72-30.06,61.44-7.26-7.15-32.98-31.18-66.87-51.85-33.91-20.68-72.98-31.37-112.7-31.37h-192.61c-6.12,0-12.17,1.51-17.43,4.63-5.29,3.14-8.51,7-12.28,15.14-5.66,12.21-9.16,29.09-9.16,47.73,0,37.28,14,67.5,31.27,67.5h521.68c17.27,0,31.27-30.22,31.27-67.5,0-13.05-1.23-24.74-3.73-34.6-4.94-19.46-22.75-32.9-42.83-32.9Z"/>
</svg>