<?xml version="1.0" standalone="no"?>
<!DOCTYPE svg PUBLIC "-//W3C//DTD SVG 20010904//EN"
 "http://www.w3.org/TR/2001/REC-SVG-20010904/DTD/svg10.dtd">
<svg version="1.0" xmlns="http://www.w3.org/2000/svg"
 width="700.000000pt" height="700.000000pt" viewBox="0 0 700.000000 700.000000"
 preserveAspectRatio="xMidYMid meet">
<metadata>
Created by potrace 1.14, written by Peter Selinger 2001-2017
</metadata>
<g transform="translate(0.000000,700.000000) scale(0.100000,-0.100000)"
fill="#000000" stroke="none">
<path d="M4084 6060 c-316 -54 -635 -212 -846 -421 -65 -63 -68 -69 -68 -113
0 -26 7 -63 15 -82 17 -41 2219 -2248 2257 -2263 45 -17 99 -21 121 -9 58 31
197 206 283 358 99 176 169 369 205 570 21 122 19 329 -6 470 -58 331 -249
665 -547 956 -276 270 -552 437 -842 509 -199 49 -382 57 -572 25z"/>
<path d="M5671 5865 c-69 -23 -116 -101 -103 -172 11 -64 102 -138 156 -127
62 11 75 17 100 43 57 60 65 139 19 199 -45 60 -106 80 -172 57z"/>
<path d="M2970 5315 c-150 -38 -262 -214 -211 -330 10 -24 390 -410 1105
-1126 940 -939 1095 -1091 1130 -1100 165 -44 366 165 313 326 -6 20 -374 395
-1086 1108 -592 593 -1089 1088 -1105 1099 -39 29 -92 37 -146 23z"/>
<path d="M2464 4766 c-111 -25 -198 -82 -263 -170 -21 -28 -152 -222 -293
-431 -141 -209 -319 -474 -397 -590 -525 -777 -573 -851 -576 -892 -8 -79 55
-158 134 -168 77 -9 66 -19 793 707 572 571 700 694 742 714 149 68 320 9 401
-137 26 -48 30 -64 30 -139 0 -111 -13 -138 -157 -311 -62 -75 -126 -151 -141
-170 -61 -75 -352 -426 -517 -625 -96 -116 -191 -230 -210 -254 -19 -24 -40
-48 -45 -54 -19 -21 -191 -231 -218 -268 -41 -54 -41 -123 -1 -180 71 -101
184 -112 274 -27 14 13 50 44 80 69 71 58 100 83 114 95 6 6 135 114 286 240
293 244 316 264 334 280 6 6 36 30 66 55 30 25 66 55 80 67 235 203 505 420
549 441 146 68 325 3 398 -146 23 -47 28 -70 28 -132 0 -138 30 -103 -733
-865 -375 -374 -688 -694 -697 -712 -8 -17 -15 -51 -15 -76 0 -87 88 -167 180
-163 48 2 54 5 355 213 61 41 137 94 170 117 33 22 65 46 72 51 6 6 54 38 105
73 446 303 1201 830 1235 862 155 143 187 378 78 565 -17 28 -393 411 -950
968 -954 953 -956 956 -1065 987 -59 18 -162 20 -226 6z"/>
</g>
</svg>
