<?xml version="1.0" encoding="UTF-8"?>
<svg id="Layer_1" data-name="Layer 1" xmlns="http://www.w3.org/2000/svg" viewBox="0 0 2180 1080">
  <defs>
    <style>
      .cls-1 {
        fill: #fff;
      }

      .cls-2 {
        fill: #ff4546;
      }
    </style>
  </defs>
  <g>
    <path class="cls-2" d="M597.19,602.51h0c-13.28,13.28-32.02,16.06-41.87,6.21L257.83,311.24c-9.85-9.85-7.06-28.59,6.21-41.87h0c13.28-13.28,32.02-16.06,41.87-6.21l297.48,297.48c9.85,9.85,7.06,28.59-6.21,41.87Z"/>
    <path class="cls-2" d="M619.46,549.72L318.15,248.42c-6.18-6.18-8.69-14.97-7.32-23.6,1.79-11.33,158.22-161.48,325.71,6,164.32,164.32,16.27,324.96,5.25,326.51-8.21,1.15-16.47-1.74-22.33-7.6Z"/>
    <circle class="cls-2" cx="665.24" cy="202.11" r="21.53"/>
    <path class="cls-2" d="M514.93,684.76h0c-2.7,2.7-5.64,5.15-8.78,7.32l-250.87,173.28c-8.59,5.93-20.19,4.88-27.57-2.5l-2.64-2.64c-8.44-8.44-8.44-22.13,0-30.57l183.11-183.11c16.68-16.68,16.68-43.72,0-60.4h0c-15.65-15.65-40.66-16.75-57.62-2.54l-203.66,170.58c-8.59,7.19-21.25,6.63-29.17-1.29l-2.76-2.76c-7.89-7.89-8.48-20.47-1.37-29.07l169.61-205.02c14.08-17.02,12.91-41.97-2.72-57.59h0c-16.73-16.73-43.85-16.73-60.57,0L36.91,641.48c-8.44,8.44-22.13,8.44-30.57,0h0c-7.31-7.31-8.42-18.78-2.64-27.36l170.65-253.39c2.26-3.35,4.84-6.48,7.7-9.34h0c24.57-24.57,64.4-24.57,88.97,0l243.93,243.93c24.7,24.7,24.7,64.75,0,89.46Z"/>
  </g>
  <g>
    <path class="cls-1" d="M1171.63,312.2c0,36.38-6.42,66.88-19.26,91.53-12.84,24.65-31.84,43.2-57.01,55.67s-56.31,18.71-93.42,18.71h-77.94V152.53h88.19c34.74,0,63.91,6.09,87.52,18.26,23.61,12.17,41.49,30.1,53.67,53.78,12.17,23.68,18.26,52.89,18.26,87.63Zm-24.05,.89c0-31.03-5.05-56.93-15.14-77.72-10.1-20.78-25.54-36.41-46.32-46.88-20.79-10.47-47.14-15.7-79.06-15.7h-60.13V457.84h53.89c49.14,0,85.88-12.06,110.23-36.19,24.35-24.12,36.52-60.31,36.52-108.56Z"/>
    <path class="cls-1" d="M1246,478.1V152.53h22.94V478.1h-22.94Z"/>
    <path class="cls-1" d="M1597.86,478.1h-23.38l-192.41-287.94h-1.11c.3,8.02,.56,16.15,.78,24.38,.22,8.24,.45,16.7,.67,25.39,.22,8.69,.33,17.63,.33,26.83v211.33h-21.82V152.53h23.61l191.74,287.05h1.11c-.15-6.53-.33-14.1-.56-22.71-.22-8.61-.45-17.44-.67-26.5-.22-9.05-.33-17.59-.33-25.61V152.53h22.05V478.1Z"/>
    <path class="cls-1" d="M1867.76,478.1h-177.93V152.53h177.93v20.71h-154.99v123.37h146.31v20.71h-146.31v140.07h154.99v20.71Z"/>
  </g>
  <g>
    <path class="cls-1" d="M1065.2,868.69l-66.58-234.5h-2c.59,6.09,1.22,14.33,1.89,24.72,.67,10.39,1.3,21.6,1.89,33.63,.59,12.03,.89,23.61,.89,34.74v141.41h-77.94v-325.58h117.14l67.92,231.15h1.78l66.58-231.15h117.36v325.58h-80.84v-142.75c0-10.24,.18-21.27,.56-33.07,.37-11.8,.81-22.94,1.34-33.4,.52-10.47,1-18.74,1.45-24.83h-2l-65.69,234.05h-83.73Z"/>
    <path class="cls-1" d="M1564.03,868.69l-16.03-61.02h-105.78l-16.48,61.02h-96.65l106.22-326.91h117.36l107.56,326.91h-96.2Zm-34.29-133.17l-14.03-53.45c-1.49-5.79-3.64-14.06-6.46-24.83-2.82-10.76-5.61-21.9-8.35-33.4-2.75-11.5-4.86-20.97-6.35-28.39-1.34,7.42-3.23,16.59-5.68,27.5-2.45,10.91-4.98,21.71-7.57,32.4-2.6,10.69-4.86,19.6-6.79,26.72l-14.03,53.45h69.26Z"/>
    <path class="cls-1" d="M1839.06,868.69h-87.96v-253.65h-79.5v-71.93h246.74v71.93h-79.28v253.65Z"/>
    <path class="cls-1" d="M2158.18,868.69h-193.3v-325.58h193.3v70.59h-105.33v51.22h97.54v70.59h-97.54v61.46h105.33v71.71Z"/>
  </g>
</svg>