<?xml version="1.0" encoding="UTF-8"?>
<svg id="Layer_1" data-name="Layer 1" xmlns="http://www.w3.org/2000/svg" viewBox="0 0 1080 1080">
  <defs>
    <style>
      .cls-1 {
        fill: #fff;
        filter: url(#drop-shadow-2);
      }

      .cls-2 {
        fill: #ff4546;
      }
    </style>
    <filter id="drop-shadow-2">
      <feOffset dx="0" dy="7"/>
      <feGaussianBlur result="blur" stdDeviation="5"/>
      <feFlood flood-color="#000" flood-opacity=".75"/>
      <feComposite in2="blur" operator="in"/>
      <feComposite in="SourceGraphic"/>
    </filter>
  </defs>
  <rect class="cls-1" x="35.5" y="35.5" width="1008" height="1008" rx="83.2" ry="83.2"/>
  <g>
    <path class="cls-2" d="M692.52,642.41h0c-10.16,10.16-24.51,12.29-32.05,4.76l-227.7-227.7c-7.54-7.54-5.41-21.89,4.76-32.05h0c10.16-10.16,24.51-12.29,32.05-4.76l227.7,227.7c7.54,7.54,5.41,21.89-4.76,32.05Z"/>
    <path class="cls-2" d="M709.56,602.01l-230.63-230.63c-4.73-4.73-6.65-11.46-5.6-18.06,1.37-8.67,121.11-123.6,249.3,4.59,125.77,125.77,12.46,248.73,4.02,249.92-6.28,.88-12.61-1.33-17.09-5.82Z"/>
    <circle class="cls-2" cx="744.6" cy="335.93" r="16.48"/>
    <path class="cls-2" d="M629.56,705.37h0c-2.07,2.07-4.32,3.94-6.72,5.6l-192.02,132.63c-6.57,4.54-15.45,3.74-21.1-1.91l-2.02-2.02c-6.46-6.46-6.46-16.94,0-23.4l140.16-140.16c12.77-12.77,12.77-33.46,0-46.23h0c-11.98-11.98-31.12-12.82-44.11-1.95l-155.89,130.56c-6.57,5.51-16.26,5.08-22.32-.99l-2.11-2.11c-6.04-6.04-6.49-15.67-1.05-22.25l129.82-156.93c10.78-13.03,9.88-32.12-2.08-44.08h0c-12.8-12.8-33.56-12.8-46.37,0l-140.09,140.09c-6.46,6.46-16.94,6.46-23.4,0h0c-5.6-5.6-6.45-14.38-2.02-20.94l130.62-193.95c1.73-2.57,3.7-4.96,5.89-7.15h0c18.81-18.81,49.3-18.81,68.1,0l186.71,186.71c18.91,18.91,18.91,49.56,0,68.47Z"/>
  </g>
</svg>