<?xml version="1.0" encoding="UTF-8"?>
<svg id="Layer_1" data-name="Layer 1" xmlns="http://www.w3.org/2000/svg" viewBox="0 0 1080 1080">
  <defs>
    <style>
      .cls-1 {
        fill: #ff4546;
      }
    </style>
  </defs>
  <path class="cls-1" d="M806.92,641.98h0c-14.74,14.74-35.56,17.83-46.49,6.9L430.15,318.6c-10.93-10.93-7.84-31.75,6.9-46.49h0c14.74-14.74,35.56-17.83,46.49-6.9l330.28,330.28c10.93,10.93,7.84,31.75-6.9,46.49Z"/>
  <path class="cls-1" d="M831.65,583.38L497.12,248.85c-6.86-6.86-9.65-16.62-8.13-26.2,1.99-12.58,175.67-179.29,361.62,6.66,182.44,182.44,18.07,360.79,5.83,362.51-9.11,1.28-18.29-1.93-24.79-8.44Z"/>
  <circle class="cls-1" cx="882.48" cy="197.43" r="23.9"/>
  <path class="cls-1" d="M715.6,733.31h0c-3,3-6.26,5.72-9.75,8.13l-278.53,192.38c-9.54,6.59-22.42,5.42-30.61-2.78l-2.93-2.93c-9.37-9.37-9.37-24.57,0-33.94l203.3-203.3c18.52-18.52,18.52-48.54,0-67.06h0c-17.37-17.37-45.14-18.6-63.98-2.82l-226.12,189.38c-9.53,7.99-23.59,7.37-32.38-1.43l-3.07-3.07c-8.75-8.75-9.41-22.73-1.52-32.27l188.31-227.62c15.64-18.9,14.33-46.59-3.01-63.94h0c-18.57-18.57-48.68-18.57-67.25,0l-203.21,203.21c-9.37,9.37-24.57,9.37-33.94,0h0c-8.12-8.12-9.35-20.85-2.94-30.38l189.47-281.33c2.51-3.72,5.37-7.2,8.54-10.37h0c27.28-27.28,71.51-27.28,98.78,0l270.82,270.82c27.43,27.43,27.43,71.89,0,99.32Z"/>
</svg>