<?xml version="1.0" encoding="UTF-8"?>
<svg id="Layer_1" data-name="Layer 1" xmlns="http://www.w3.org/2000/svg" viewBox="0 0 2180 1080">
  <defs>
    <style>
      .cls-1 {
        font-family: OpenSans-ExtraBold, 'Open Sans';
        font-weight: 700;
      }

      .cls-1, .cls-2 {
        fill: #1f1c1c;
        font-size: 456.07px;
      }

      .cls-2 {
        font-family: OpenSans-Light, 'Open Sans';
        font-weight: 300;
      }

      .cls-3 {
        fill: #ff4546;
      }
    </style>
  </defs>
  <g>
    <path class="cls-3" d="M597.19,602.51h0c-13.28,13.28-32.02,16.06-41.87,6.21L257.83,311.24c-9.85-9.85-7.06-28.59,6.21-41.87h0c13.28-13.28,32.02-16.06,41.87-6.21l297.48,297.48c9.85,9.85,7.06,28.59-6.21,41.87Z"/>
    <path class="cls-3" d="M619.46,549.72L318.15,248.42c-6.18-6.18-8.69-14.97-7.32-23.6,1.79-11.33,158.22-161.48,325.71,6,164.32,164.32,16.27,324.96,5.25,326.51-8.21,1.15-16.47-1.74-22.33-7.6Z"/>
    <circle class="cls-3" cx="665.24" cy="202.11" r="21.53"/>
    <path class="cls-3" d="M514.93,684.76h0c-2.7,2.7-5.64,5.15-8.78,7.32l-250.87,173.28c-8.59,5.93-20.19,4.88-27.57-2.5l-2.64-2.64c-8.44-8.44-8.44-22.13,0-30.57l183.11-183.11c16.68-16.68,16.68-43.72,0-60.4h0c-15.65-15.65-40.66-16.75-57.62-2.54l-203.66,170.58c-8.59,7.19-21.25,6.63-29.17-1.29l-2.76-2.76c-7.89-7.89-8.48-20.47-1.37-29.07l169.61-205.02c14.08-17.02,12.91-41.97-2.72-57.59h0c-16.73-16.73-43.85-16.73-60.57,0L36.91,641.48c-8.44,8.44-22.13,8.44-30.57,0h0c-7.31-7.31-8.42-18.78-2.64-27.36l170.65-253.39c2.26-3.35,4.84-6.48,7.7-9.34h0c24.57-24.57,64.4-24.57,88.97,0l243.93,243.93c24.7,24.7,24.7,64.75,0,89.46Z"/>
  </g>
  <text class="cls-2" transform="translate(878.12 478.1)"><tspan x="0" y="0">DINE</tspan></text>
  <text class="cls-1" transform="translate(888.16 868.69)"><tspan x="0" y="0">MATE</tspan></text>
</svg>